/* XPM */
static char *e4bfd7d975454c10b773368fc8ddb14f1u6xAqCJl6mWU4ON[] = {
/* columns rows colors chars-per-pixel */
"64 64 247 2 ",
"   c #1F7C2F",
".  c #1E7933",
"X  c #267D2E",
"o  c #257C33",
"O  c #2B7D35",
"+  c #257D3A",
"@  c #2B7E3B",
"#  c #2A7537",
"$  c #327C36",
"%  c #337D3C",
"&  c #3C7C3C",
"*  c #38763B",
"=  c #32742A",
"-  c #477A2B",
";  c #5B772C",
":  c #457B39",
">  c #597737",
",  c #7A6628",
"<  c #667229",
"1  c #626D34",
"2  c #776934",
"3  c #677537",
"4  c #75723B",
"5  c #64692F",
"6  c #257F43",
"7  c #2C7E42",
"8  c #327C42",
"9  c #3C7A42",
"0  c #217E51",
"q  c #427D40",
"w  c #787946",
"e  c #B81610",
"r  c #BE2802",
"t  c #B6390A",
"y  c #B43C13",
"u  c #BC3815",
"i  c #AE3C18",
"p  c #B23E24",
"a  c #CB1D02",
"s  c #C71905",
"d  c #D41400",
"f  c #DC1501",
"g  c #D31D01",
"h  c #DB1D01",
"j  c #D61709",
"k  c #CB1F13",
"l  c #E31E02",
"z  c #EB1B00",
"x  c #E31909",
"c  c #F11A00",
"v  c #EA1E19",
"b  c #C52302",
"n  c #CB2501",
"m  c #C52D00",
"M  c #CE2C01",
"N  c #CA260A",
"B  c #D52402",
"V  c #DC2401",
"C  c #D32C02",
"Z  c #DC2A01",
"A  c #D62C0B",
"S  c #DB2B0C",
"D  c #DA240B",
"F  c #C53201",
"G  c #CC3102",
"H  c #C8370A",
"J  c #D63509",
"K  c #C52A15",
"L  c #D72912",
"P  c #C63717",
"I  c #D63616",
"U  c #E32301",
"Y  c #E22902",
"T  c #E4230A",
"R  c #E82709",
"E  c #E2360A",
"W  c #E62813",
"Q  c #EB2E0E",
"!  c #C53823",
"~  c #D73D23",
"^  c #E22720",
"/  c #9A5217",
"(  c #BA460E",
")  c #BC4318",
"_  c #A4581B",
"`  c #AD4C16",
"'  c #9D542B",
"]  c #9A5827",
"[  c #975832",
"{  c #8B5929",
"}  c #AB4823",
"|  c #B44822",
" . c #A45224",
".. c #B55226",
"X. c #A85635",
"o. c #8C6429",
"O. c #846639",
"+. c #967334",
"@. c #A06034",
"#. c #DD4A0E",
"$. c #C6421B",
"%. c #DD4815",
"&. c #D9581A",
"*. c #CD4A13",
"=. c #E55B14",
"-. c #E5601A",
";. c #C64924",
":. c #D34925",
">. c #CA5439",
",. c #D35134",
"<. c #CC4833",
"1. c #E24E33",
"2. c #E87628",
"3. c #F77736",
"4. c #EF692B",
"5. c #CB693A",
"6. c #BE6950",
"7. c #D75D58",
"8. c #E15641",
"9. c #D46749",
"0. c #CA6853",
"q. c #D26D52",
"w. c #D37E74",
"e. c #D5776F",
"r. c #E06C55",
"t. c #1F8A2E",
"y. c #1D833B",
"u. c #1A8B3C",
"i. c #198637",
"p. c #1C953A",
"a. c #28842E",
"s. c #248334",
"d. c #2C8335",
"f. c #248A34",
"g. c #2C8A36",
"h. c #25833B",
"j. c #2C833B",
"k. c #248B3B",
"l. c #2D8A3C",
"z. c #328435",
"x. c #3B8235",
"c. c #338A36",
"v. c #32843C",
"b. c #3A843C",
"n. c #338B3D",
"m. c #398C3D",
"M. c #3A8936",
"N. c #2C923D",
"B. c #27943A",
"V. c #349236",
"C. c #33913C",
"Z. c #3A923D",
"A. c #3A9737",
"S. c #2C8D2E",
"D. c #48862D",
"F. c #428C3B",
"G. c #48883B",
"H. c #45993A",
"J. c #538B2D",
"K. c #1D8B44",
"L. c #1A8642",
"P. c #119348",
"I. c #248443",
"U. c #2D8442",
"Y. c #258A42",
"T. c #2C8A42",
"R. c #2E8548",
"E. c #278B49",
"W. c #328542",
"Q. c #3B8442",
"!. c #348B42",
"~. c #3A8D42",
"^. c #34834A",
"/. c #3B8D4A",
"(. c #378A48",
"). c #2C9143",
"_. c #299546",
"`. c #359243",
"'. c #3B9244",
"]. c #3C934A",
"[. c #389749",
"{. c #269350",
"}. c #2AA148",
"|. c #438B43",
" X c #4D8A44",
".X c #438747",
"XX c #419345",
"oX c #449945",
"OX c #4B9B41",
"+X c #43954A",
"@X c #439A4B",
"#X c #4A974C",
"$X c #589347",
"%X c #499B52",
"&X c #429A50",
"*X c #5C9551",
"=X c #729143",
"-X c #49A346",
";X c #56A345",
":X c #4AA255",
">X c #55A550",
",X c #6CAF6E",
"<X c #F48D38",
"1X c #FF963B",
"2X c #CE8735",
"3X c #958549",
"4X c #D69342",
"5X c #FA8B43",
"6X c #F08B47",
"7X c #FAA548",
"8X c #D88269",
"9X c #DA9679",
"0X c #CD8D77",
"qX c #E68E70",
"wX c #EDA17D",
"eX c #D49C83",
"rX c #E69C8A",
"tX c #E79894",
"yX c #DEA78A",
"uX c #DBA996",
"iX c #E8A489",
"pX c #E4A697",
"aX c #F1A595",
"sX c #E6A6A5",
"dX c #E5B4A7",
"fX c #F3B1AC",
"gX c #CEB3A0",
"hX c #ECD5A4",
"jX c #F7D0B6",
"kX c #EED39C",
"lX c #F7BBC5",
"zX c #E4CAC4",
"xX c #F6D3D2",
"cX c #EAE1DB",
"vX c #EFEEE3",
"bX c #FAEBE6",
"nX c #FDFDEC",
"mX c #F7F9EB",
"MX c #EDF9F1",
"NX c #F5FFF5",
"BX c #FCFDF4",
"VX c #F5F4FD",
"CX c #FFF6FD",
"ZX c #F5FDFD",
"AX c #FDFDFD",
"SX c #FFF4F1",
"DX c #F4F5F2",
/* pixels */
"W.W.O n.'.v.W.v.s.l.j.j.j.n.j.j.z.n.d.j.[.j.j.j.d.m.d.~.U.@ U.j.n.j.U.v.'.Z.O Q.j.j.~.j.j.%XW.8 O !.h.k.l.d.v.j.x.v.s.~.Q.j.j.v.",
"j.j.n.n.n.n.j.j.d.j.j.v.n.~.n.!.z.+X].j.j.!.j.j.m.~.n.d.@ W.j.l.@Xj.j.v.~.m.v.%X!.j.d.j.v.@ v.W.n.n.`.l.d.m.@Xj.+X[.l.~.~.j.j.W.",
"j.v.~.n.n.'.v.~.'.v.j.j.d.~.n.].j.~.'.d.j.n.d.v.m.n.'.d.W.+Xj.n./.d.d.n.!.W.j.+Xn.j.j.v.!.o d.n.c.n.n.s.XXoX~.o +X`.N.n.n.n.j.j.",
"v.'.n.d.n.~.d.@X~.v.v.!.n.'.j.j.`.n.n.d.~.~.n.~.n.d.'.d.].@Xj.j.@ d.m.n.j.7 O c.v.v.~.j.!.~.z.Z.g.l.~.v.+Xn.o j.$ j.N.n.v.'.j.@ ",
"~.'.d.n.n.n.v.~.j.@ v.!.n.@Xn.d.`.C.'.z.oX'.XXd.~.c.c.d.~.~.j.v.W.n.Z.Z.j.7 j.c.n.'./.j.j.].c.Z.[.s.(./.~.v.v.W.O n.C.~.z.@XU.% ",
"~.v.d.@Xn.m.'.d.n.j.j.j.d.'.'.l.l.d.c.c.oXd.n.o XXm.n.n.n.j.v.j.W.j.m.'.!.j.j.n.v.@Xd.v.!.n.n.n.[.j.O v.~.].W.# b.'.n.v.# ].W.W.",
"v.v.d.~.n.+X~.d.d.j.!.~.n.g.'.d.!.s.d.'.'.d.@ W.~.n.m.XXv.v.W.j.@ @ j.'.`.l.n.j.j.'.d.n.'.d.j.n.d.n.v.~.l.n.j.@ XX'.j.j.% W.!.b.",
"v.+Xv.o j.@XO v.l.l.!.~.n.X @Xn.].v.n.n.j.!.@ 8 v.z.~.'.O W.W.j.j.@ U.!.c.C.'.j.n.n.n.d.~.v.j.].m.m.~.:Xa.f.'.n.oXC.h.U.(.U.~.n.",
"U.j.d.d.l.j.j.j.v.j.!.d.n.n.n.n.T.T.d.o '.!.j.j.k.& v.v.v.T.9 R.% j.j.j.v.T.j.W.j.v.+X/.j.h.j.!.c.v.+Xm.d.@ /.OXZ.'.'.s.v.n.j.W.",
"@ !.'.n.j.j.!.~.o l.`.`.l.n.n.n.T.h.l.!.j.j.W.O % j.v.k.).% U.@ L.6 h.h.W.Q.& j.U.j.v.z.n.T.s.j.n.l.f.N.[.s.[.g.n.j.n.s.n.'.v.W.",
"v.v.n.n.j.!.~.~.l.n.g.C.n.'.n.d.T.h.!.].j.W.W.+ h.k.n.d.XXz.l.d.`.!.$ % $ j.f.f.+ j.d.a.`.`.s.!.U.C.-Xn.[.g.Z.+ O j.~.n.oX+XW.U.",
"W.v.d.d.!.~.!.n.g.C.g.`.n.n.n.v.h.l.d.!.v.v.@ v.j.!./.b./.h.+ @ v.l.j.7 U.E.R.W.+ v.v.j.!.l.l.[.W.m.-Xc.~.'.n.+ j.U.~.M.Z.~.v.W.",
"@ /.n.d.!.W.d.n.n.n.n.`.'.j.v.j.l.l.g.n.j.v.v.'.v.f.n.O b.(.h.^.f.n.l.l.j.% b.l.'.n.j.U.U.j.c.V.l.l.g.A.C.h.j.l.!.U.!.X z.v.@ W.",
"O @X+Xd.j.!.j.n.'.n.d.j.'.n.~.v.`.l.'.+Xd.v.XXXXb.O p.k.n.].% + i.!.v.n.N.l.C.M.oXn.j.R.7 @ n.S.c.W.v.V.c.U.U.'.!.j.n.d.~.~.j.W.",
"v.~.!.d.j.!.n.g.!.!.~.j.d.j.n.~.n.d.n.~.v.j.!.n.6 8 [.[.).k.v.  j.!.d.b.~.).).8 ~.j.d.!.j.@ ~.n.~.v.m.o v.%Xv.v.c.l.!.j.].'.j.j.",
"!.o d.l.j.j.C.C.+ j.l.j.j.[.l.j.W.v.j.j.].W.+ j.t.; | u t ( 4X4X4X2X` t H i 2 s.8 @ X c.n.@ W.U.l.C.C.h.E.j.j.j.C.l.!.+ j.v.d.W.",
"'.c.`.l.d.n.XXv.W.@ d.'.XXT.!.% `.n.g.`.v.* Q.W.R.o.Z R h E 5X5X<X5XE h Y S o.T.v.Q.@ l.m.f.XXk.F.oXl.y.W.v.Q.I.v.v.v.d.n.j.~.'.",
"~.n.n.~.n.XX'.z.j.j.v.~.l.d.l.k.l.B.d.F.N., P H P &.1X2.m Z J C C J Z m 2.5X&.P ) ! O.`.~.j.!.j.l.h.8 T.s.d.XXB.j.j.n.n.'.n.~.!.",
"v.j.j.!.z.m.n.n.j.j.: b.% O k.d.b./.T.!._.' T Y h =.7X2.Z Y g V V g Y Z 2.7X=.h V z @.B.n.n.~.m.l.u.* Q. XF.H.G.n.j.n.n.n.v.v.v.",
"v.v.j.~.n.n.n.`.U.j.v.u.W.n.: p / ` / }  .P B Z A G *.E U J C C C C A l E *.M D G D ;. .|  ...` } x.d.l.].'.j.q `.n.'.n.v.O v.j.",
"W.j.j.l.'.~.n.l.Y.j.% u.).`.- ! R z C U U A C V Y V C V B b D A A D b g V C V Z R n V l V M R h ^ - c.).h.j.U.u.l.l.~.n.m.v.v.v.",
"U.+ j.j.n.j.l.h.% j.& j.W.Q.z.> ; u C C z Y A D M Z g J 3.3.Z Z Z Z 4.3.J B Z M D G Z Y Z Z I J.5 v..Xj.$ v.j.T.d.l.n.d.n.j.j.W.",
"W.j.~.m.z.O !.!.% k.k.h.j.q $ ).V.! W C Z C B Y b L h #.7X<XF Z Z F <X7X%.V S n V Z Y B Z D i Z.k.Q.& y.!.l.s.b.l.n.j.O ~.v.j.j.",
"v.v.~.+Xv.~.(.v.K.j.v.% W.Y.y.(.~.3 , P L D B %.2.*.B E =.%.A T v A #.-.E V *.3.%.M D B :.+.; m.m.f.W.!.j.j.% K.l.~.n.v.%X'.j.j.",
"b.z.n.l.7 ^.v.c.j.O b.v.!.#XQ.p.`.t.}...h A g -.7X-.a B h C Z A C V n V h b =.7X4.g Y V .._.u.A.{.$ #Xf.k.W.j.l.C.n.j.j.W.].O z.",
"~.n.c.j.+ @ v.Z..Xj.j.h.v.XXc.> < < 3 P Y S h r.kXwXw.r.x I M N L C I x r.w.wXhXq.B E g P 4 4 1 2 V.XX: % Q.Q.XXc.s.d.j.!.v.m.#X",
"+X'.c.l.U.j.n.oX~.v.W.h.: f.= v W Z L T G b j 0XAXSXNXjXk a V h f h n s hXBXNXAX9Xf n M Z M h L W D.k.@ E.W.j.n.@Xc.d.j.~.j.XX+X",
"~.~.d.j.!.v.m.Z.+ + 8 W.W.v.- @.{ F V V V >.7.fXAXcXdXiX0.6.9.q.q.9.6.0.yXfXcXAXdX7.>.j Y Z J ' _ D.v.7 E.l.h.@ '.n.s.d.l.n.+Xv.",
"b.~.d.d.~.n.m.n.$ j.U.K.I.v.n.}.C.H R M W fXmXNXAXuXe 0.nXAXAXAXAXAXZXnX0.e uXBXBXmXdXx B B P D.-Xd.W.@ !.v.$ 7 v.'.n.n.s.n.'.v.",
"~.~.j.j.~.~.~.j.j.& @ h.7 j.j.: !.] } t s fXAXMXAXpXd 5.jXxXAXSXbXAXxXjX9.s aXNXMXAXdXa J } X.=X.X# T.h.k.O % I.n.'.~.[.d.j.v.~.",
"W.j.j.j.j.v.j.@ y.h.* % Y.Q.Q.j.h.i.Y.;.V dXAXCXAXpXh m N <.mXNXNXmX>.b J h sXNXCXAXdXs ;.T.K.a.U.j.Q.v.T.@ j.% j.+ j.j.j.j.v./.",
"W.o j.U.j.v.@ 7 @ K.* d.f.v.C.b.g.^.0 $.V yXDXvXBXsXg A l ,.BXVXVXBX,.h G f sXAXvXvXiXB | @ .Xf.j.[.z.h.8 9 u.d.j.+ T.+ W.j.@ W.",
"R.j.  l.j.W.@ 7 o [.j.+ j.j.~.n.N.[ $.G U I K iXAXuXh Z n :.NXAXAXMX1.r Q d pXCXrXt I R C ( ' m.n.n.j.j.+ !.].s.7 @ T.j.T.. U.T.",
"U.!.n.l.j.j.j.j.!.j.j.+ + ~.~.s.'.u c A K I j 9XNXpXK K V 8.VXCXAXVX1.f G r yXAXeXd J u u z P XXd.~.!.h.+ j.j.!.j.j.j.j.l.!.W.% ",
"v.~.oXn.n.j.~.v.~.j.W.j.W.~.o d.n.t Y +.G._ f rXZXbXzXpXa ,.ZXNXBXAX;.B uXxXbXAXtXx _ .X=XR H !.v.s.T.T.j.W.W.[.l.!.d.l.n.+X~.% ",
"b.m.'.d.~.~.'.n.j.j.j.+ ~.'.s.'.b.y H *XP./ z eXBXBXZXfXs <.bXBXAXSX<.s lXAXAXBXeXz _ K.*XI ) j.Z.d.!.~.+ @ v.j.l.`.n.n.d.'.Q.b.",
"% v.v.j.v.!.!.l.n.j.O j.j.n.'.g.!.x.- % U. .z ,.q.0.0.0XdXjXBXVXVXNXzXgX8X9.9.q.1.h ] y.T.z.x.W.d.'.l.j.j.o j.j.n.n.n.v.j.v.v.j.",
"@ @ @ v.@ U.j.l.~.@Xj.j.j.d.'.n.8 U.Q.+ E.' z n j d d 9.AXAXnXZXNXnXCXAX9.n g a m h X.K.j.U.W.+ v.'.j.j.j.v.@X~.!.j.j.@ U.j.j.@ ",
"@ j.j.U.@ j.j.l.s.@Xv.v.~.j.'.+XI.y.% # K.{ U D x ( , 3X0X0X8X8X9X8Xe.0Xw 3 ..S Z U ' y.@ * 7 i.+X~.j.!.j.!.@Xd.l.j.j.j.W.U.W.@ ",
"@ @ j.j.j.U.j.d.d.n.j.~.!.j.n.O @ h.v.U.E. .R C c ] P.w a a n j a a a V > P.o.z G V ' U.Y.@ U.v.z.v.j.j.v.v.n.g.f.l.j.j.j.8 8 8 ",
"W.j.j.d.v.j.W.U.j.j.!.v.v.O j.W.U.+ $ l.A.3 [ O.' 1 h.: J V T A A D V I 4 u.; [ 2 O.: _.U.W.# W.U.U.O v.~.b.v.% v.U.j.j.+ W.@ U.",
"W.j.U.j.W.j.U.j.+ j.j.!.v.!.W.W.* h.T.m.'.z.g.k.K.@ I.q Q Z G V C C B W O.K.k.i.p.C.N.n.j.j.# h.% % b.v.~.j.h.h.v.v.j.j.j.W.j.W.",
"v.j.U.U.W.v.v.j.j.!.j.~.v.].v.j.@ & Q.W.n.k.l.% U.q 7 > W M F h C C C D 4 E.Q.8 s.z.c.m.F.l.l.v.W.+ ~.+ ~.v.j.v.@ v.j.n.j.v.W.W.",
"v.v.U.j.W.v.v.v.n.!.d.!.j./.j.j.l.v.n.j.v.Q.W.j.m.M.l.> E V D U C C C S > L.l.U.W.W.N.'. Xx.`.`.j.j.!.s.l.v.b.% v.j.j.n.j.j.v.U.",
"v.v.@ @ j.v.n.n.n.j.j.j.j.j.j.U.`.N.l.z.j.T.Y.i.N.S.B.> J C M C U A Z W 3 v.v.@ @ u.k.f.l.$ .Xj.$ W.j.j.j.j.j.j.v.j.l.~.n.v.v.j.",
"W.v.+ j.j.n.n.!.n.j.j.j.W.+ j.j.N.C.F.m.k.Y.v.b.Q.b._.> S V B U Y Z V J 3 !.!.8 9 W.& j.k.+X#Xv.j.~.j.j.j.+ n.!.v.o n.~.n.n.v.j.",
"8 W.j.n.n.~.l.l.~.!.!.j.W.@ U.j.l.m.M.~.8 8 j.C.|.c.C.3 S Z B Z C C U F < c.Z.v.m.j.b.b.$ ~.N.o N.).l.j.v.$ b./.~.o `.n.n.n.v.v.",
"8 W.j.'.C.'.l.h.n.v.W.@ @ @ W.U..Xb.f.Y.8 L.@ 2 ~ ) ) P z C l Z B A c l P y $.:.3 s.m.#Xl.n.n.XXd.d.'.W./.j.j.l.%Xd.'.d.d.~.n.~.",
"$ n.c.g.j.j.j.h.j.T.!.o 7 @ U.+ N.& $ W.@ k.z.5 t u u u t y y y t y t y u t t t 1 XXs.@Xm.`.B.l.O XX'.v.v.v.j.b.v.d.n.n.XXd.~.Q.",
"b.z.'.l.j.~.j.~.j.!.!.+ U.W.U.j.u.W.W.j.W.Q.~.$ h.k.h.Y.I.E.Y.Y.l.T.j.U.!.!.!.l. Xm.i.'.|.l.v.v.d.'.n.n.n.n.v.v.v.n.~.m.'.d.(.W.",
"Q.v.~.j.j.].n.'.l.!.l.h.7 U.7 h.R.+ h.Y.[.v.!.[.j.j.+ j.@ @ @ % d.n.n.n.'.'.~.j.!.k.l.n.'.j.v.|.n.'.l.n.n.!.j.j.O /.+Xv.n.v./.j.",
"Q.n.j.j.U.W.n.c.l.l.l.h.h.7 I.h.% U.l.j.l.f.l.v.n.j.h.j.h.@ @ @ f.l.l.g.C.l.l.h.h.j. Xn.l.v.T.!.n.'.d.n.n.!.j.j.O v.~.d.v.v.~.v.",
"Q.!.j.j.j.j.n.c.n.C.`.s.U.+ U.h.o l.v.F.x.d.h.l.!.j.+ j.T.R.R.6 !.'.n.n.n.j.U.W.k.: .Xv.j.k.@ Y.n.~.l.n.n.n.j.j.~.O d.j.!.j.v.!.",
"b.j.[.l.j.j.s.`.n.C.`.i.j.+ U.h.b.|.v.`.b.& v.[.z.n.m.d.d.s.h.h.C.Z.C.C.c.d.d.l._.v.b.v.l.!.@ U.n.n.n.n.n.n.!.j.~.n.v.j.v.~.W.v.",
"W.+ !.l.j.W.s.!.n.`.`.s.h.h.j.s.XX*X'.u.+ b.v.% b.|.+Xn.j.+ U.U.l.'.~.~.!.j.j.j.`.h.$ l.).Q.l.v.j.n.C.c.C.l.`.j.n.~.'.j.j./.W.@ ",
"W.j.s.l.n.j.j.j.n.'.`.k.j.!.!.d.t.b.j.+ Q.I.u.& d.g.f.i.k.Y.T.y.V.'.n.j.j.U.!.T.O d.l.s.l.k.l.y.j.l.`.g.C.l.`.j.n.d.n.~.!.W.+ W.",
"W.W.@ j.!.m.n.'.d.`.j.v.v.'.n.s.C.% 8 ^.# W.W.# v.O W.&Xn.'.l.n.v.n.d.'.n.'.~.d.7 U.j.v.XXm.n.l.z.l.d.&X!.n.n.m.n.d.s.j.@ +X+X$ ",
"W.W.j.j.n.n.n.m.l.j.d.~.~.d.d.n.H.$Xd.s.C.s.s.,XW.m.>X:X/.7 j.Z.U.j.j.~.j.~.!.j.@ (.j.d.+X~.n.`.n.n.l.l.d.'.n.n.l.l.[.j.j.!.+Xv.",
"j.!.v.j.n.n.j.v.!.j.j.v.v.j.'.'.B.@ + ~.F.M.A.;Xb.z.n.d.~.!.n.j.U.+ !.!.j.!.W.j.!.~.v.n.n.v.j.j.!.n.n.s.d.~.j.j.n.l.l.d.j.j.v.j.",
"j.~.!.j.n.n.j.j.T.U.j.+ j.~.+Xd.O |.m.l.n.m.c..XH.M.$ @ !.d.+ W.j.+ T.!.j.!.!.j.n.n.d.n.z.v.!.T.j.j.n.c.'.j.+ U.Z.n.d.j.d.j.d.~.",
"j.~.n.l.n.n.j.j.U.+ j.v.W.v.~.X F.;XH.l.XXH.OX,X~.>X;Xa.j.R.W.d.j.j.j.j.j.j.`.l.d.'.l.n.~.!.j.[.j.j.l.C.@Xd.j.W.d.+X'.n.d.'.`.[.",
"v.!.n.l.n.!.j.j.j.j.j.W.v.j.~.v.(.z.c.j.: G.OX.Xm.z.M.n.:XU.W.~.n.n.j.j.j.j.'.n.n.~.l.n.n.n.n.l.j.j.d.j.'.j.!.j.z.~.'.n.~.n.~.!.",
"v.v.j.j.n.n.j.U.v.!.j.v.j.j.~.'.G. X!.y.!.U.6 ^.c.z.!.~.%Xd.n.!.n.~.n.j.~.j.!.!.j.+ j.!.j.v.].l.!.j.j.j.v.j.W.j.~.v.v.n.'.j.j.+ ",
"v.v.d.j.!.j.j.j.~.!.j.~.!.j.j.!.V./.R.S.OXQ.s.A.j.'.c.n.W.@ v.M.d.v.~.j.(.!.+ v.U.T.l.j.~.d.n.j.`.d.!.!.U.j.j.W.n.~.n.m.v.v.j.W."
};
