/* XPM */
static const char *xpm_[] = {
/* columns rows colors chars-per-pixel */
"64 64 174 2 ",
"   c #277E3B",
".  c #2C7E3E",
"X  c #317E3E",
"o  c #297741",
"O  c #2D7D40",
"+  c #337E41",
"@  c #397E41",
"#  c #1F8A3C",
"$  c #26843C",
"%  c #2C843D",
"&  c #25893B",
"*  c #2D8A3C",
"=  c #348A37",
"-  c #32843D",
";  c #39853E",
":  c #338B3D",
">  c #378B3E",
",  c #338F3C",
"<  c #368D3D",
"1  c #398A3D",
"2  c #3C8E3E",
"3  c #2E903C",
"4  c #35903D",
"5  c #34913D",
"6  c #3A923E",
"7  c #3F983F",
"8  c #448B37",
"9  c #478639",
"0  c #428B3C",
"q  c #488E39",
"w  c #43933E",
"e  c #4A923D",
"r  c #54933B",
"t  c #519A3B",
"y  c #2E8340",
"u  c #2F8A41",
"i  c #338341",
"p  c #3A8542",
"a  c #358B40",
"s  c #368E40",
"d  c #3B8C41",
"f  c #398E41",
"g  c #3D8E41",
"h  c #3C8C4D",
"j  c #359141",
"k  c #3B9241",
"l  c #3E9845",
"z  c #468242",
"x  c #418C42",
"c  c #4A8D44",
"v  c #438D4D",
"b  c #429142",
"n  c #459241",
"m  c #449342",
"M  c #459542",
"N  c #469545",
"B  c #499343",
"V  c #499344",
"C  c #449842",
"Z  c #4A9942",
"A  c #449449",
"S  c #4A9A4F",
"D  c #549646",
"F  c #5C9F41",
"G  c #51964F",
"H  c #458C52",
"J  c #459253",
"K  c #4A9455",
"L  c #4C9F54",
"P  c #549A5C",
"I  c #5AA041",
"U  c #5A9C64",
"Y  c #599968",
"T  c #6D9F78",
"R  c #5CA061",
"E  c #67A666",
"W  c #63A46E",
"Q  c #68A472",
"!  c #74AD79",
"~  c #79AC7E",
"^  c #77B07D",
"/  c #FD9735",
"(  c #FC9836",
")  c #F6963C",
"_  c #FC9739",
"`  c #F6993C",
"'  c #FC9839",
"]  c #D7974A",
"[  c #D19F53",
"{  c #F59B44",
"}  c #F99C43",
"|  c #F79D49",
" . c #D1A053",
".. c #F6A047",
"X. c #F8A04A",
"o. c #EEA354",
"O. c #F6A555",
"+. c #F1AA5F",
"@. c #F7A95C",
"#. c #EDAE6C",
"$. c #F3A760",
"%. c #F1A962",
"&. c #F0AD69",
"*. c #F6B26E",
"=. c #F1B473",
"-. c #F1B67B",
";. c #F6BC7F",
":. c #7DAE81",
">. c #7AB385",
",. c #84B38D",
"<. c #8DB494",
"1. c #8FB993",
"2. c #9CBFA1",
"3. c #ECBF8D",
"4. c #F7BC80",
"5. c #F8BB80",
"6. c #EDBF90",
"7. c #A7C6A0",
"8. c #A6C8A4",
"9. c #A6C7AC",
"0. c #A8C5AE",
"q. c #ADCEAD",
"w. c #B6C1A0",
"e. c #B9C2A0",
"r. c #B6C9A4",
"t. c #B1CBB5",
"y. c #B1D1B0",
"u. c #B7D0BA",
"i. c #BBD2BE",
"p. c #F5C284",
"a. c #F6C48C",
"s. c #E5C49A",
"d. c #EBC99C",
"f. c #F7C793",
"g. c #F9C792",
"h. c #F6C897",
"j. c #F3CA9C",
"k. c #CBCBAB",
"l. c #DDCAA1",
"z. c #C2D2B8",
"x. c #DBDABF",
"c. c #F5D4AC",
"v. c #F9D2AA",
"b. c #E3DABA",
"n. c #F4D5B0",
"m. c #F7DFBB",
"M. c #F9DEBC",
"N. c #BCD5C2",
"B. c #BDDAC2",
"V. c #C1DCC3",
"C. c #DDD7C1",
"Z. c #D1DFCB",
"A. c #CFDDD0",
"S. c #D1DED1",
"D. c #D3E0CC",
"F. c #CFE1D3",
"G. c #D9E6D9",
"H. c #FAE5C6",
"J. c #FAE7CE",
"K. c #FBE7D0",
"L. c #FAEBD3",
"P. c #FEF2DF",
"I. c #DEEBE2",
"U. c #E1EBE2",
"Y. c #F6EEE1",
"T. c #F2F1E2",
"R. c #FEF1E3",
"E. c #FFF9E6",
"W. c #F1F3EE",
"Q. c #FCF3EA",
"!. c #FDF9EC",
"~. c #FDF9F2",
"^. c #F7FBFC",
"/. c #FEFEFD",
/* pixels */
"i % % ; s : % % % % % % - : % * - % % * < % % % - 1 - - % - % % : * % * 6 g % - % > % % % N i % % * * % % % - - ; - ; > ; - % - ",
"- % % s * 5 % % % % % % : : < - - b g % * % % % > 5 : a % % % * l % % > > - d b % % % % % - - i ; 1 : - * 5 C - b > : 3 2 % % - ",
"% % > ; s 3 % : g % - % % : : , * < B - % % % > ; > 5 % - k % - 1 % % * s % - B ; % - - - . - * : : : % x n > . d 2 3 : ; > % % ",
"p * < > ; < - N < % - - ; 2 * * k * > % 2 > : : d - 2 * g b % - - - 1 : % % $ : : % ; - * - * 5 * * 2 - 6 1 % $ . - < ; > < % - ",
"x k - : > 2 % > - % - * < M : * 5 5 d * Z 0 M % : : 2 - : ; % - % - M 2 % $ . < : k x - % 2 5 6 k % ; > : : % . $ : 2 : * n % X ",
"- - % B 2 : a % - % - - % < M % % * : 2 M % ; % x b : a - - % % % % * C : % % : - M : - : : * : k . % - : 6 % O : k : ; . b ; i ",
"p : % d * b g - % - a > 1 * 6 % > : % 5 : % X % ; : 2 w ; % % - + . % 6 : - > % * < & : k % : > % p * 2 > * : $ 6 6 $ % + % > p ",
"- d - % % w - % % - * : : % 6 5 d % - > ; ; O . % % d 2 % % - % . $ % * 5 5 : % : > : : > - * 6 , 6 6 C & & b > w 6 % $ y - d i ",
"% : % % % - % % % - : : * : : : * % % % d > % % % - % % % % - % . $ . % ; : % % % - n 1 % % % * > : 2 5 % $ 0 w 7 5 < % % % : % ",
"i - 1 : & - - d % % 5 5 > : : ; % % % * - - % X . % - - a : % . $ . % $ X % % % % % - - * % % % ; : * : 5 & 5 * % : < * 6 1 % i ",
"i * 2 % % a 5 , * : * 5 : < 2 % % % : : % - % . + % : : 5 % . . : * . O y % % % O % - % < a % % % 6 C 5 5 5 5 $ O % > * w w * i ",
"- % - - : d > * * 5 * 5 5 2 < % % % * * % - % % y - d ; : % $ $ : * - O % % * % $ % % % * * % M * 2 Z 5 5 < ; $ % - 2 : 2 2 % @ ",
"i > d % * * - a * 5 * 5 k * * % * : * 6 - % - g * * * % - : $ . $ a : * % % : * 2 > & % % * : 5 * % * 6 5 % % * > % * * % % % i ",
"- M 1 % % * % * 2 ; : : < % 2 - 3 < x b - % g n - % * % % 6 - + $ a * 2 : * j : N ; - - O % < 3 : 2 - < : * - d * % * % ; x % i ",
"- 2 - % % s : * : - < % % - > d * % > : % % > > % % > < : * - . % - % > 1 < * - 1 % - - % % * : 2 > - % % 5 - : * : 2 % 6 2 % - ",
"; % % % % * 3 : % % % % : 5 * - a p i p k y y * * u u * k i * - * d 5 j - i i i i X * j > i p : > , 5 $ % * % % : 3 * % * % % ; ",
"k : : ; % : w ; % - % w 6 : % W B.V.B.B.V.B.B.B.B.B.B.B.V.B.B.B.B.V.V.B.B.B.N.B.B.N.B.V.B.B.V.B.! 6 : $ . % - % ; % % % ; : * k ",
"d s : 5 : 2 7 % % % % b : % $ >./.R.R.R.R.R.R.R.R.R.R.R.R.R.R.R.R.R.R.R.R.R.R.R.R.R.R.R.P.R.R./.>.% % % ; : b : % $ > : 5 * < d ",
"i % % : * 2 * a % - % - % % $ >.Q.-.@.+.%.%.+.+.+.+.+.+.+.+.+.+.+.+.+.+.+.+.+.+.+.+.+.%.%.$.-.Q.>.$ % % n < x b > * 2 % : % % i ",
"X % % > > ; 1 1 % - % % * ; % ~ Y.#.{ ' _ ' ( ( ( ( ( ( ( ( ( ( ( ( ( ( ( ( ( ( ( ( ( / _ | &.T.:.% - * d d - - 1 2 ; ; > % % - ",
"- % % : < 2 : * % - % % > > % J :.b.m.@./ / ' ' ' ' ' ' ' ' ' ' ' ' ' ' ' ' ' ' ' ' ' / @.m.b.:.J % d > % - % $ * > 2 2 - % % - ",
"- - % % * - % & % % % % - - % % J U.~.*._ ' ' ' ' ' ' ' ' ' ' ' ' ' ' ' ' ' ' ' ' ' ' ' *.~.U.J % % - - % % % % & % - * % % - - ",
"% % % g - - : - - % % % % - % : K U.~.*._ / ' ' ' ' ' ' ' ' ' ' ' ' ' ' ' ' ' ' ' / / / *.~.I.K : % - % % $ $ : : : - - g % % % ",
"- % x n - - 2 - % % % % - * % * L U.!.*.) / ' ' ' ' ' ' ' ' ' ' ' ' ' ' ' ' ' ' ' ( ( ` =.~.U.L * % * ; % % % * : 2 % a n 2 % i ",
"; % 1 : % % * : - - - % > M ; * A 1.8.l.j.+./ ' ' ' ' ' ' ' ' ' ' ' ' ' ' ' / / / / +.j.l.7.1.A * - M : % - - - 5 * % $ < d % - ",
"c * < % . % % 2 g % % - % b : > > % A D.~.;./ ' ' ' ' ' ' ' ' ' ' ' ' ' ' ' ' ' / / ;.~.Z.b % 1 > : b % - % : g 2 & * - * : : V ",
"n k > > $ % < w < % - % - - % : 2 2 x F./.4./ ' ' ' ' ' ' ' ' ' ' ' ' ' ' ' ' _ ' / ;./.G.D 2 < e w - - % % % < M < % % : > 6 B ",
"1 2 % * - % k 6 $ X X % - % d k : n v F./.5./ / ' ( / ' ' ' ' ' ' ' ' ' ' ' / / / / 5./.G.B b - e w % % % - . % 5 g - - * * 7 1 ",
"- 2 - % 2 * < * . . % % % % - B > % p 0.S.s.=.O.) ( ' ' ' ' ' ' ' ' ' ' ' ' ( ) O.=.s.A.0.p % : M % % % - % . . * < * d % - 5 - ",
"x % - % : : < y % $ . % - - % ; - - % i h z.!.a.' / ' ' ' ' ' ' ' ' ' ' ' ' / _ a.E.z.h i y - r 2 % % - % . $ $ : 6 < : % % % g ",
"p % % % % % % $ . . $ - % : % - % % % % y i./.h.' ' _ ' ' ' ' ' ' ' ' ' ' ' ' _ f./.N.i - % % - - i : % % $ . . $ % % % % % % p ",
"i $ y % % % . $ $ % $ X % : < : % % X . p i./.f._ ' ' ' ' ' ' ' ' ' ' ' ' ' / / g./.N.p 9 X % % - < : % . $ % $ $ . % % % y $ i ",
"i $ . % % % O + $ 5 - . $ * 5 a > - X $ i t.W.d.o.| / / ' ' ' ' ' ' ' ' ' ' | o.d.W.t.p % + % < > 5 * $ $ * 5 . + O % % % . $ @ ",
"y : % * % % % % > % % . $ * - ; < % : - - K U r.L.g._ _ / ' ' ' / / ' / / _ f.L.r.U K % - : % < - - * $ . $ % a % $ % % * % : y ",
"i x 6 > : % : * : ; % X : < % % % % > n % % : q./.v._ ' / ' ' ' / ' ' ( / ' v./.q.: % * n > % % % % < : . % ; : * : & : : w g - ",
"@ : b * 5 < 1 > % i $ . 1 : * < - % - n : % 2 y./.v./ / ' ( ' ( ( ' ' _ ' ' v./.8.% - : b - % - < * : > . $ - % > 1 < 5 * n : @ ",
"+ % - % - : % : % - $ $ % * 5 * % % % % % % % 9./.c.{ ` ' ( ' ( ' ( / / _ ` c./.2.. % % % % % % * 5 * % $ $ % * : % : % % - % O ",
"O . y % . % % : 2 2 % % % - 5 : % - % % $ O % Y ,.e.n.p._ ' ' ' / / / _ a.c.w.,.Y . $ $ % % - % : 5 - % % % 6 < : % % . - y . O ",
"+ $ $ % $ % % % % M ; > - % k x $ X % . O o . .   <./.M._ ' ' ' / ' ' } M./.<.  $ . O . . % X $ x k % % - ; C % % % % $ % . $ + ",
"+ . % % . % % % % > - < - $ : % . $ % $ - % $ % . <./.M.} / ( _ ' / / } M./.<.% y . % % % $ . . - : % % - - > % % & % . % % . + ",
"$ % % . $ % % % % % ; ; % . - % % y % * b 1 % % . <./.M.{ _ ( ' / / / { M./.<.. % . * < % + % y . O X - d - % % - % % % . % % $ ",
"y % % - % % - % . % * 2 * % i - . . % 1 n - % % $ T i.k.3.-.} ' ( ` =.6.k.u.Q % % < : > % % . . X . % % ; % % . - % % % - % % % ",
"i - % % % - % % - * % g - 5 * y $ % > d % : % % y - $ ~ !.H.} / ' ..H.~.~ - % % % ; > , 2 - : * % % u % ; * - + % % % % % % % a ",
"- % % % % % % * : * % * % s - - - : ; % % 2 - % - 1 % ~ ^.K.} / / X.J.^.~ % % i % % : 6 n ; < 5 * % * % % % % - % % % - - - % % ",
"i % % . - ; - s : : % % % % % % s * d - $ % % % > 5 , ^ ^.K.X.' / X.L./.~ - p . y % % % % * 2 % % : % - $ % % % % % > > > % % - ",
"@ % - . y : * : : % - - % % $ % 3 < ; > % $ % > ; > 5 W G.C. .] ] [ x.G.Q % - . i - - % % n b - - < % % $ % - ; % % : : < ; % % ",
"@ - % ; * 6 * * 2 ; p % % $ . % : ; > < $ % y : < - < p H H x z x c G J s 5 , : % : X - - g : % * * < . X X % 6 k % * > ; 1 % % ",
"@ X % 2 5 < % $ ; > % O . O % % 2 > % - $ . . - % - 2 - $ . . O $ * > . $ * 5 6 : % p w * < : k * % g 1 > - % : M % < - : > < g ",
"- - : : * % % . % % i . $ . % . * ; . % - % - % . - a $ . . . . % - % . $ % % : : p - Z : s , * % d w : * - % - - % : 2 < - d d ",
"% : 6 % * : % > * d : % % % . $ & % y % > ; 1 % i $ % $ . $ y $ - d * : - : > % : d & 6 6 * * - % C * : > - % % % g < 1 n - - i ",
"; > > - % < < 6 % a & & . y . $ $ % % - 2 % < a % % % $ . $ . $ & : % < 6 j : % : > : : 6 % : a * 2 * d > < - % % > M % - - < p ",
"p 1 % % % * : : : : % $ O $ $ . . $ % - * % * - * - . O $ $ O $ % * < : > * * % % - b 1 * % % < < k - * : : % % % % 1 - % - 2 - ",
"@ % : % % % - > * , 5 $ $ % $ % % % - d % % % > d % % y $ $ $ $ * < * , > % % % * - > p % $ % % : : : : : : - % > - - % : - % % ",
"@ % : : % % % 2 < 3 5 $   $ & & > 2 ; d * - % < ; ; 1 * # $ $   * 5 : 2 : % % - j * - % : % % % - 2 : , 5 s : - d : - % - d - i ",
"i % * * % % % : 2 5 5 $ & $ & % 1 F 1 % % - y % - q w - & $ & $ * 5 d > % % % * * % % % 3 : % % % 2 < 5 5 % < * : < 1 * - a * @ ",
"i % % * : * % * * 5 5 % & * > % % - % $ % % y . % % * % : : & % * k : * % % : * $ % & % : & * % % * : 6 5 * 5 & * - > , % : % i ",
"@ - . . < 3 : g - < - : - 2 * % : % - + . % . + - % > K a 6 - ; % < * d > * 5 % . - % - n > < & % * * k 5 % < : > % * % % g 2 i ",
"i - % - % : < ; % % % 5 - - , , e 0 % - ; % ; E p : F S j * - < * % * : 1 : * % % % - - k 2 * : > d - - % : - d * * < % % ; N - ",
"% < - % - * % * 5 % % % % % < 3 = - % : 8 : w D 0 - = * 5 % % % % $ * 3 % % ; % - < * : * - % - > - * % % : * % * 5 : % % % - - ",
"i : * * > : % % : $ . y - ; r % % 1 1 : < 5 , N e 8 * . - - - i % $ * * % * s * : , * 5 ; % > : % * < k : % % % > 5 * % - % % d ",
"@ d : * ; * % % % $ . % % % ; % 1 I w * 0 e t R k I w % % % - % . * % % % % a % : d ; > , * ; * % % - , M % - % - M < - < : 5 k ",
"- < ; * d * % % % % i - - - > * 2 = : % : 0 e v d * > k P p ; : ; : % % * % 2 * % d * d : * > : % % % - 1 % - % % 5 6 : < * * p ",
"- * % - d $ % - - * % - - % 1 1 9 9 a % : p % i ; > p 1 A % % d < * - % a * : ; % % & : % * d * * % - % % - % % 2 : > % > % % i ",
"i % % % % % % % d > % : 1 % - : 6 6 * * M > % 6 : 2 2 < * $ % ; % : g - * - % % % - % * u % ; * 5 % ; * % % - % 1 2 > d > % y @ "
};
