/* XPM */
static char *dca6b96a2bf04bea9eb321c90e64efb2f2wKSLPGQosAOqhU[] = {
/* columns rows colors chars-per-pixel */
"64 64 193 2 ",
"   c #1E7A2F",
".  c #1E7933",
"X  c #267C2E",
"o  c #2B7B2C",
"O  c #387B2E",
"+  c #2F6F33",
"@  c #247733",
"#  c #2C7734",
"$  c #257C34",
"%  c #2B7E35",
"&  c #277738",
"*  c #2C763F",
"=  c #257D3A",
"-  c #2B7E3B",
";  c #327D36",
":  c #317D3B",
">  c #387F3D",
",  c #447E3E",
"<  c #2A7244",
"1  c #277D43",
"2  c #2C7E42",
"3  c #317741",
"4  c #317D42",
"5  c #387F47",
"6  c #447A48",
"7  c #1E8134",
"8  c #1E843A",
"9  c #24832E",
"0  c #2D822E",
"q  c #29892F",
"w  c #34812F",
"e  c #3C862D",
"r  c #338A2C",
"t  c #33902F",
"y  c #248234",
"u  c #2C8335",
"i  c #278932",
"p  c #2C8A36",
"a  c #26833A",
"s  c #2C833C",
"d  c #278A3B",
"f  c #2D8A3B",
"g  c #328435",
"h  c #3A8335",
"j  c #348A36",
"k  c #3B8A37",
"l  c #32843C",
"z  c #3A853B",
"x  c #338B3D",
"c  c #3A8C3D",
"v  c #2C9337",
"b  c #2C903D",
"n  c #379436",
"m  c #3A9235",
"M  c #3F9A33",
"N  c #33913D",
"B  c #3A923D",
"V  c #379839",
"C  c #44862E",
"Z  c #5C8B2B",
"A  c #48952F",
"S  c #56942F",
"D  c #418437",
"F  c #408F34",
"G  c #4B8C35",
"H  c #4D873A",
"J  c #438C3C",
"K  c #528D3D",
"L  c #469635",
"P  c #479937",
"I  c #42933F",
"U  c #4C933E",
"Y  c #479D3A",
"T  c #4C993F",
"R  c #53913B",
"E  c #1A8340",
"W  c #258341",
"Q  c #2D8441",
"!  c #258D42",
"~  c #2E8A42",
"^  c #2D8548",
"/  c #298848",
"(  c #368544",
")  c #328542",
"_  c #398640",
"`  c #3A8542",
"'  c #328942",
"]  c #328A42",
"[  c #368943",
"{  c #368941",
"}  c #328C42",
"|  c #318F41",
" . c #358D41",
".. c #378E40",
"X. c #378D42",
"o. c #368C41",
"O. c #338844",
"+. c #368E44",
"@. c #348B42",
"#. c #3A8A41",
"$. c #398A42",
"%. c #3B8D41",
"&. c #388F41",
"*. c #3A8E41",
"=. c #3A8D42",
"-. c #3C8F41",
";. c #388B45",
":. c #3A8E45",
">. c #3C8C45",
",. c #3A8D42",
"<. c #34844A",
"1. c #3E814E",
"2. c #358D48",
"3. c #388D49",
"4. c #3B8E48",
"5. c #3B8C4A",
"6. c #249140",
"7. c #2C9042",
"8. c #339241",
"9. c #339542",
"0. c #339145",
"q. c #369144",
"w. c #359347",
"e. c #359242",
"r. c #3A9140",
"t. c #3A9143",
"y. c #3D9041",
"u. c #3C9543",
"i. c #3A9246",
"p. c #3A9146",
"a. c #3D9145",
"s. c #3B9244",
"d. c #399847",
"f. c #3C9A46",
"g. c #359449",
"h. c #399349",
"j. c #3D9048",
"k. c #3E954A",
"l. c #3C9349",
"z. c #3C9949",
"x. c #4D8544",
"c. c #448D42",
"v. c #4B8B43",
"b. c #438A4A",
"n. c #4A8F4E",
"m. c #429446",
"M. c #419345",
"N. c #4A9541",
"B. c #449944",
"V. c #4C9B43",
"C. c #43904A",
"Z. c #459149",
"A. c #429649",
"S. c #40914E",
"D. c #43964E",
"F. c #44974F",
"G. c #42954A",
"H. c #4C9249",
"J. c #40984C",
"K. c #449A4B",
"L. c #489A48",
"P. c #499A4B",
"I. c #4C9C4D",
"U. c #519342",
"Y. c #539C44",
"T. c #57974B",
"R. c #569E4C",
"E. c #498955",
"W. c #528C51",
"Q. c #429A50",
"!. c #499950",
"~. c #499A55",
"^. c #499C52",
"/. c #4F9F58",
"(. c #54935E",
"). c #629745",
"_. c #639C57",
"`. c #46A446",
"'. c #4CA247",
"]. c #4CA24B",
"[. c #55A144",
"{. c #5BA343",
"}. c #50A64D",
"|. c #4BA252",
" X c #4EA35A",
".X c #55A550",
"XX c #56A65D",
"oX c #76A85F",
"OX c #73B15E",
"+X c #66A76D",
"@X c #72AE6E",
"#X c #71B76E",
"$X c #72B474",
/* pixels */
") ) % x p.l ) l a f s s s x s s g x u s w.s s s u c u +.Q - Q s x s Q l y.B % ` s s ;.s s ~.( 4 % ] a d f u l s h l y #.` s s l ",
"s s x x x x s s u s s l x X.x } g G.k.s s ] s s c &.x u - ) s f J.s s l &.c l !.{ s u s l - l ) x x 0.f u c F.s Z.w.f &.#.s s ) ",
"s l X.x x t.l ;.p.l s s u X.f h.s X.p.u s x u s c x u.u ) S.s x 3.u u x { ) s G.x s s l { $ u x j x x y m.L.&.$ G.} b x x x s s ",
"l a.x u x &.u D.X.l l { x u.u s 8.x x u -.&.x X.x u u.u j.D.s s - u c x s 1 % j l l 3.s O.X.g B p f ;.l B.x $ s : s b x l p.s * ",
"&.a.u x x x l &.l s l { x A.x u 9.N t.g L.y.m.u &.j j u #.#.s l ) x B B s 1 s j x a.>.s s k.x B d.y ;.>.#.l l ( # x N -.g F.Q : ",
"#.l u A.x c a.u x s s s u t.u.f f u j j L.u x $ C.c x x x s l s ) s c u.{ s s x l F.u l ] x x x z.s % l &.k.) @ z u.x l # j.) ( ",
"l l u ;.x G.-.u u s @.X.x p u.u { y u t.a.u - ) #.x B m.l l ) s - % s p.8.f f s s u.u x p.u s x y x l &.f x s - M.u.s s : ) ] z ",
"l G.l $ s F.% l d f } X.x X A.x j.l x x s @.- 4 l g &.y.% ) ) s s - Q ] j B t.s x x x u &.l s j.c c -.|.9 p u.x B.N a Q 5.Q +.x ",
"Q s u u f s s s l s { u x x x x ~ f u $ p.{ s Q s ) s u s s Q Q Q Q s s x x f u a l Z.4.- a s { j l G.c u - >.B.B t.p.y l x s ) ",
"- { t.x s s ] +.$ x 8.8.f x x x f y s ] s s ) - s - s u p.] Q - = a s - - s s s Q l l g x } a s x f i b d.y z.p x s x y x t.l ) ",
"l l x x s ] +.X.f x p N x u.x u ~ a } l.s l ) - s s X.x k.s s s f s s - Q ( Q Q = Q u 0 8.} y ] Q N `.x w.p B - % u X.x A.G.) Q ",
") l u u X.+.] x p N p e.N x x l a f s { l l - l Q ) +.f X.u - - x x s - Q ) s a = l s u ] f d f.) c '.j &.y.x - s Q ;.j B -.l ) ",
"- >.x u ] ) u x x x f 8.u.s l s f f f x u l l -.s s s u x X.Q - s x ] ) s s p j y.x s Q Q s j n f f p V N a s f ] Q { X g l - ) ",
"% F.G.u s ] s x a.x u s t.x #.l N f t.G.u g a.G.s s s u x +.s - s ) ] X.x j j N B.l s ^ 1 - x t j ) l n j Q Q a.] s x u t.&.s ) ",
"l &.{ u s } x p ] ] } s u s x ;.x u { ;.l s X.{ a s } f } s s s s s s x x x x s ` u u } s - { x -.l c $ l ~.l l j f } s k.p.s s ",
"{ $ u f s s N N - s f s s h.f s x l s s l.) % s s a f u u.s s s s x x j f s Q ^ 5 - y N x l ( Q f N N a / s s s N f } $ s l u { ",
"u.j 8.f u x m.l s s u K.a.x ) a ~ f f 8.l $ Q 1 s s s j.4.s ) s B u.x s s a - ( W 2 : ) 8.d } ` X.Q.Q Q - s l u l l l u x s X.p.",
"&.x x X.x C.y.g s s l a.l u s Q f } u x &.s s Q s s s ;.) s ) s &.&.s s ~ ~ - 4 = - s p.X.s x x x s s ) s l G.x s s x x t.x X.{ ",
"l s s { g c x x s l l x u u s Q s 8.f f t.x s s - Q s ) l l ) - s l - s s s = - - a d N l g x f u u s l m.&.m.y.x s x x x l l l ",
"l l s X.x x x 8.s s s s l ] ) s s X.x s x s s ~ - - - - - l ) l s Q s O.s Q - ) @.s a f s l X.f s l l l C.c l x 8.x t.x l % l s ",
") s s f p.X.x d s s s s ] +.s s s s s s s s Q Q l - - s - - ) ) Q s = Q s O.Q s Q s Q ) s s s s Q s ) &.% l l % f f &.x c l l l ",
"Q $ s s x s f a s s s s ) l s s x u s Q s ) s - l s s Q s s l ) s s l s u u l % a s ) l s s s x s Q ) ) - ] s s u f x u x s s ) ",
") s X.c g % @.O.s s ] - l s s ] &.x x s s l u l c x x s s ) s l s X.G.c g g M.J ) s s % z #.l 8.s ] ) - ( ] a 0.f x s % &.l s s ",
"l l #.G.z #.;.l s s ) - @.l s @.j x x s s u g I.B j u.f s @.) s u l G.k k J R.U.z s y u H.T.j v t.$ l ) ) s a d f X.x l ^.a.s s ",
"z g x f 1 <.l j l % l u { K.x u t.u a.u s u c k x ` m.a x V.4 a , 2 t F -.0 # $X#.l j k k J g u.f y ].l 4 <.l j N x s s ] j.% g ",
"#.x j s = - l B ;.s l % l G.x x x u -.l ^.c M.w z u 8.u m.#.x Q e W.k ;.(._.O ).m.Y.R U x ~ s k j j y.s s Q l t.j y u s ] l c I.",
"Z.a.j f Q s x B.4.l l s l l u l c M.l l c l M.c.n.n x T J ^ 9 l x = B.u.a D oXI Z Y.N x J K M.! U N.l s s u u +.L.j u s w.s C.G.",
"#.&.u f ] l c B - & ) ) l l l G.j C.l l % % l -.b.m j [.; 5.u c 0 : %  X(.x.OXG S N.s s k U M.s Y.c.s s } f % - y.x y u f x G.l ",
"z &.u u X.x c x - = s Q s s { ^.l s ) - ( s % - s g L B s ( ( c ` ) $ J @Xc.V.v.~ x h o = W g C V.u ( Q } l - * l y.x x y x a.l ",
"#.#.s s X.&.X.s ( Q Q s s s s l ] s s = 1 ( - l f ( T u s ; 5 u < E p {.I z.o Q ^ f 8.s ) ) l V.x X 2.s Q - ) 4 x p.X.w.u s l #.",
") s s s s l s - = - - s ) { x u s s s O.- ) : > a ) l l f x l : s ; 2 g 6 E.r h s s <.4 z o % O.s s x s s = s s s - s s s s l 5.",
"( & s Q s l - 2 - Q s - s { &.l l u s - ) : c.z a f 1 z t.a u 3 8 a = u Q 1.V.a : l l ` v.; l W s a.g u Q Q s y s - ~ a ) s % ) ",
"^ s   f s ( - 4 $ h.s = s s p.x 2.s s % ) 5.s u - ) { 8.x ] @ ) XXs @ - ) O.$ l = O.s s s ) s +.&.X.s s - O.h.$ 2 - ~ s ~ . Q Q ",
"Q ] x f s s s l } s s s - X.X.y f s x l l - u x ) l &.y x s s ) +.>.>.Q $ ;.#.a s l % l { x u x $ x ~ a s Q s w.s s s s f ] ) : ",
"l &.A.x x s X.l ;.s ] s ) X.$ f f u c G.#.% c m.s ] f u f X.s - - ) l &.l p.h.l m.x l x G.x u x x u } ~ s ) s } f } u x x G.#.> ",
"z c y.u X.} t.x s s s - +.p.y e.s y u a.{ s ;.t.- s s x f p.s - - ~ y c -.8.+.` a.l u l j.l u s t.u } +.- s ) s f 8.x x u a.` z ",
": l l s l ] ] f x s % s s x t.p ) s s @.s - ] u Q s x f 8.u x s s /.-.f f l z s l - s s { s Q ) u p.f s s % l ] x x x l s l l s ",
"- - - l - Q s f &.D.s s s u t.x Q Q Q Q - - Q - Q s x t.X.u s s l XXp.s s s - s s s Q s s s Q Q x k.s s s s G.x { s s - Q s s - ",
"- s s Q s s s f y A.x l +.s ;.G.= - s - = - - s s s u G.x l s s J u.s l ) W a : 2 2 - s = s - % C.{ s ] s { K.u f s s s ) Q ) - ",
"- - s s s Q s u u x s X.] % x % s - s s Q ( - l ) - - l ] % +.) j z % ~ a Q ) s 2 2 - ) s ) s - g l s s l l x p i d s s s 4 4 4 ",
") s s u l s ) Q s s { l l % l ( Q = - l L.j u Q - ) ) 2 4 l l a.s s Q Q Q s s - s a x +.s Q - <.Q Q % l #.z l : l Q s s - ) % Q ",
") s Q s ) s Q s - s s { l { ) ) = s ) l M.j s Q - - - % - l s X.] s s s Q ) s - ] f X.x s s % & : : z l &.s a a l l s s s ) s ) ",
"l s Q Q ) l l s s ] s X.l j.l s $ ) ;.l c x l s s s l - l { x x @.s s s x ) ) ) s s x x x l &.l ) - +.$ X.l l l - l s x s l ) ( ",
"l l Q s ) l l l x } u ] s h.s s s { x u g x l s l l { s x p.x s s s f f l s Q <.s s x t.a.l a.&.s s } y f l z > l s s x s s l Q ",
"l l - - s l x x x s s s s s s Q } x x s u s f s x x X.l s ] s s s s x x x s s Q s s u u x u c u ; ) s s s s s s l s f X.x s l s ",
"( l - s s x x } x s s s ) - s s x x x 8.s s Q } x x &.x u s s l s x x x x X.l - ) ) l - { G.D.u s X.s s s - x ] l $ x X.x x l s ",
"4 ) s x x t.f f ;.] @.s ) - Q s X.x x p.s Q s ] x x X.] - - 2 ) s x x f f 8.x s l l l l s &.x u b 7.f s l : z >.-.$ 8.x x x l l ",
"4 ) s t.N t.d a { ) ) % - - ( Q a.x u { - 2 Q l x u X.X.s - 2 4 u x ] s y x u.N l u { G.x x x K.u u j.( 5.s s f ^.u u.u u &.x ;.",
": x j p s s s a s ~ } @ 2 * Q = O.Q $ l s l l l - s g.= ) & Q = u x s - s s f x s k.u F.x 8.x p % m.y.l l l s z l u x x m.u >.` ",
"z g t.f s +.s X.s } } s Q ) Q s s Q s s l { ;.s l s s = Q Q Q a f } ] ] @.] x u 8.X.u a.8.f f x u u.x x x x l l l x &.c y.u ;.( ",
"` l X.s s h.x t.f } d a 1 ^ 1 a Q = - x h.s } w.l Q s s = Q 1 Q s } f x t.&.x s } s l x t.u f X.x u.f x x } s s % >.G.l x l >.s ",
"` x s s Q ) x j f f d a a 1 W a s l l s x s s s ) l - s = Q = W s f u x x x l s u u a.l x s f +.x t.u x x } s s % l &.u l l #.l ",
"` { s s s s x j x N 8.y Q = Q a @ l l { l s s l { l s - Q Q Q = x N f j j u s s f s -.l s s s s x X.f x x x s s #.% u s { s l { ",
"z s w.f s s y 8.x N e.7 s = Q a c -.l >.{ s l S.x x >.s ~ a s = N e.x 8.x u s s w.s l l f f a s x x x x x x ] s ;.x l s l +.) l ",
") - } f s ) y } x 8.9.y a a s y M.|.a.u - l ) l u c G.s d 7 a a p e.x x x s s ~ } s s l } ~ f ~ s x N j N f 8.s x X.p.s s 3.) - ",
") s y f x s s s x u.8.d s } } u 0 j u $ O.s s ) u g l y f 7.~ = p u.8.s s Q } f a s ] s f f f a s f e.p N f w.s x u x X.] ) - ( ",
") ) - s { c x a.u 8.s l l p.x y N : 4 <.* ) ( + l % ) Q.x u.f x l x u t.x t.&.u 2 Q s l C.c x f g f u Q.] x x c x s s s - G.G.; ",
") ) s s x x x c f s u ;.#.u u x A U.u y N y y #X( c }.|.3.1 s B ) s f X.s X.] s % 3.s u G.-.x 8.x x f f u 8.x x d f w.s s { G.l ",
"s { l s x x s l } s s l l s t.t.6.- = &.J k m [.k g x u ;.@.x s Q = +.+.s +.) s { ;.l x x l s s ] x x y u X.s s x f f u s s l s ",
"s X.{ s x x s s ~ Q s - s #.G.u % c.c d x c j b.V.c % % { u $ ( s = ~ } s ] ] s x x u x g l { ~ s s x j t.s % Q B x u s u s u X.",
"s &.x f x x s s Q - s l ) l &.X J {.Y f M.P V.+X#..X'.0 s ^ ( u s s s s s s 8.f u u.f x &.{ s w.s s x B A.u s ( u m.t.x u p.8.h.",
"l { x f x ] s s s s s ) l s #.l 2.g j s , G V.b.c j j x  XQ ) &.x x s s s s t.x x X.f x x x x f s s u s p.s O.s g &.a.x X.x X.] ",
"l l s s x x s Q l ] s l s s X.y.H v.{ 8 @.^ 1 <.j g { +.^.u x @.x X.x s X.s ] ] s $ s } s l k.f } s s s l s ) s &.l x x a.s s - ",
"l l s s ] s s s &.{ s ;.@.s s x m 5./ q V.` y M s t.j x ) - l j u l ;.s 3.O.- l Q ~ f s X.u x f 8.u ] @.Q s s ) x &.x c l l s ) "
};
