/* XPM */
static char *_ed524fa730347a1d6674d57a6d5f0006EhJlZNwByyLBZ9y[] = {
/* columns rows colors chars-per-pixel */
"64 64 254 2 ",
"   c #1C7C35",
".  c #297A2D",
"X  c #247C34",
"o  c #2C7D35",
"O  c #247D3B",
"+  c #2B7E3B",
"@  c #247636",
"#  c #337D3C",
"$  c #347D37",
"%  c #786B1D",
"&  c #6B6F1F",
"*  c #4F7830",
"=  c #786727",
"-  c #657A33",
";  c #726E2C",
":  c #1D7F42",
">  c #2D7D42",
",  c #277C45",
"<  c #337C42",
"1  c #387B46",
"2  c #487B42",
"3  c #CB3E09",
"4  c #D53C07",
"5  c #C73E15",
"6  c #9E5A1C",
"7  c #BB4501",
"8  c #BE4B03",
"9  c #BE4D0B",
"0  c #BB4609",
"q  c #AB5607",
"w  c #BD520D",
"e  c #B75508",
"r  c #BC4D13",
"t  c #B54817",
"y  c #A1591C",
"u  c #B85514",
"i  c #8A6A1A",
"p  c #B6680C",
"a  c #AD780C",
"s  c #B4740A",
"d  c #BA6713",
"f  c #B67B13",
"g  c #AB7610",
"h  c #935E21",
"j  c #AB5526",
"k  c #8C662C",
"l  c #AC7230",
"z  c #C44604",
"x  c #CB4605",
"c  c #C44B05",
"v  c #CB4B04",
"b  c #C5450B",
"n  c #CB450B",
"m  c #C54C0B",
"M  c #CA4C0C",
"N  c #D3470B",
"B  c #D24A0C",
"V  c #D84606",
"C  c #C5520C",
"Z  c #C9510D",
"A  c #C75406",
"S  c #D8560C",
"D  c #C54E12",
"F  c #CB4C12",
"G  c #C94616",
"H  c #D24B14",
"J  c #D44516",
"K  c #C35211",
"L  c #CC5111",
"P  c #C75417",
"I  c #D35913",
"U  c #E35219",
"Y  c #DB6B1C",
"T  c #D56216",
"R  c #DA711B",
"E  c #CE6C0F",
"W  c #E4751D",
"Q  c #E16B1C",
"!  c #D86D22",
"~  c #DC7625",
"^  c #C6732A",
"/  c #E16E21",
"(  c #E37525",
")  c #E57A25",
"_  c #E57C2A",
"`  c #EA7B2A",
"'  c #EA7726",
"]  c #F17C28",
"[  c #F27730",
"{  c #1C842B",
"}  c #1B8739",
"|  c #159236",
" . c #24832D",
".. c #28862D",
"X. c #258335",
"o. c #2B8335",
"O. c #2C8A35",
"+. c #25843B",
"@. c #2C843B",
"#. c #248B3B",
"$. c #2D8A3C",
"%. c #248C31",
"&. c #328436",
"*. c #348A35",
"=. c #32843C",
"-. c #3B843C",
";. c #338B3D",
":. c #398C3E",
">. c #398537",
",. c #2C913D",
"<. c #269338",
"1. c #349435",
"2. c #34923D",
"3. c #3B923D",
"4. c #389A38",
"5. c #30922D",
"6. c #6DBC1B",
"7. c #64B815",
"8. c #71BE1A",
"9. c #56872A",
"0. c #45893C",
"q. c #568D3A",
"w. c #469539",
"e. c #539938",
"r. c #4C972B",
"t. c #729134",
"y. c #4BA224",
"u. c #52A53A",
"i. c #54AC2E",
"p. c #6BB129",
"a. c #44A01F",
"s. c #7CCF0C",
"d. c #7BCC06",
"f. c #75D30B",
"g. c #7CD30C",
"h. c #7BD90E",
"j. c #79D706",
"k. c #7CCD13",
"l. c #76C516",
"z. c #7CD212",
"x. c #78D715",
"c. c #69D011",
"v. c #72CA21",
"b. c #74E512",
"n. c #188A42",
"m. c #1B9248",
"M. c #248444",
"N. c #2D8442",
"B. c #258B42",
"V. c #2C8A42",
"C. c #2B874A",
"Z. c #338442",
"A. c #3B8542",
"S. c #348C42",
"D. c #3B8C42",
"F. c #3B8C4A",
"G. c #33894A",
"H. c #289343",
"J. c #359242",
"K. c #3B9244",
"L. c #3C934A",
"P. c #399847",
"I. c #2F8552",
"U. c #37A450",
"Y. c #418B42",
"T. c #428449",
"R. c #429345",
"E. c #429944",
"W. c #43944A",
"Q. c #44994B",
"!. c #4A9849",
"~. c #559845",
"^. c #459952",
"/. c #509253",
"(. c #749346",
"). c #52A34A",
"_. c #609D62",
"`. c #5CA263",
"'. c #9A9C12",
"]. c #A7850B",
"[. c #A4960D",
"{. c #AE8E14",
"}. c #97A60D",
"|. c #93B70D",
" X c #99A710",
".X c #97A812",
"XX c #8BBA12",
"oX c #94B715",
"OX c #8CB707",
"+X c #AEB519",
"@X c #8D8B3A",
"#X c #95943C",
"$X c #918B37",
"%X c #A8953C",
"&X c #B28635",
"*X c #B8B527",
"=X c #CB841B",
"-X c #C7983C",
";X c #D4952B",
":X c #EC842C",
">X c #EA8B2C",
",X c #F38B2D",
"<X c #F6872D",
"1X c #EA952B",
"2X c #F4942C",
"3X c #FD942D",
"4X c #FB982B",
"5X c #ED8733",
"6X c #F78935",
"7X c #EA9837",
"8X c #F69534",
"9X c #FC9534",
"0X c #F49C33",
"qX c #FC9A35",
"wX c #FD943B",
"eX c #F59B3B",
"rX c #FD9B3C",
"tX c #F6963F",
"yX c #DCA82C",
"uX c #D1B329",
"iX c #E1A32A",
"pX c #E5A635",
"aX c #FCA13C",
"sX c #F7A337",
"dX c #C1AF1D",
"fX c #84CD0B",
"gX c #87CA0A",
"hX c #82D30C",
"jX c #8AD10D",
"kX c #85D608",
"lX c #83CE11",
"zX c #8BCA13",
"xX c #89C818",
"cX c #96C517",
"vX c #83D313",
"bX c #8AD313",
"nX c #85D517",
"mX c #93C60C",
"MX c #A8C11C",
"NX c #91C721",
"BX c #AEC428",
"VX c #9D9443",
"CX c #9A8F43",
"ZX c #A49243",
"AX c #B69348",
"SX c #C99746",
"DX c #D59846",
"FX c #D29751",
"GX c #FF9442",
"HX c #FE9C42",
"JX c #F29C45",
"KX c #F4924A",
"LX c #FEA143",
"PX c #F8A947",
/* pixels */
"Z.Z.o ;.K.=.Z.=.X.$.@.@.@.;.@.@.=.=.@.@.S.@.Z.=.o.S.@.S.@.=.@.$.2.o.+.$.J.3.o.=.&.N.C.V.X.!.=.@.o S.+.#.$.o.=.@.>.=.X.D.A.@.@.=.",
"@.@.;.;.;.;.@.@.o.@.@.=.;.S.;.S.=.K.L.;.@.=.@.@.D.D.L.@.+ Z.@.G.W.Z.=.Z.F.=.-./.*.O. .$.o.# Z.Z.;.;.J.$.o.:.Q.@.W.J.$.D.D.@.@.Z.",
"@.=.S.;.;.K.=.D.K.=.@.@.o.S.;.L.;.;.K.&.o.@.X $.:.O.3. .=.R.o.@.S.o.o.;.S.@.@.E.I.N.@.Z.G.> Z.S.:.;.;.X.R.!.D.X W.S.$.;.;.;.@.@.",
"=.K.;.o.;.D.o.Q.S.=.=.S.;.K.@.@.J.;.:.&.D.:.;.J.:.o.J.o.K.Q.=.@.> o.*.*.Z.N.+ &.G.O.3.o.=.;.O.;.o.$.D.=.R.;.X @.$ @.,.;.=.K.@.+ ",
"D.K.o.;.;.;.=.D.=.@.=.S.;.Q.;.o.J.J.K.&.!.K.L.@.S.;.S.@.S.=.+ Z.N.S.E.K.N.N.N.K.S.:.K.+ @.E.1.P.P.X.D.F.D.=.=.Z.o ;.2.D.&.Q.N.# ",
"D.=.o.Q.;.:.K.o.;.@.@.@.o.K.K.$.@.;.;.;.!.o.S.o D.F.=.Z.A.o # =.N.X ;.S.@.O +.$.&.3.=.1 C.O.O.S.P.@.o =.D.L.Z.@ -.K.;.=.o L.Z.A.",
"=.=.o.D.;.W.D.o.o.@.S.S.;.O.K.o.S.o.o.K.K.o o A.6.v.7.v.v.6.6.7.6.7.6.l.l.8.6.6.7.l.p.w.L.@.O.Z.o.;.=.D.$.;.@.+ R.J.@.@.# Z.S.=.",
"=.W.=.X @.Q.o =.$.$.S.S.;.. Q.;.F.=.@.;.;.S.o A.fXbXhXhXhXhXhXkXhXg.vXhXkXkXbXnXvXkXnXa.S.;.*.R.3.:.D.^. .O.P.;.E.2.+.N.F.N.S.;.",
"N.@.o.o.$.@.@.@.=.@.0.+.$.$.;.D.<.X.$.o T.O., , k.z.z.z.z.z.z.k.z.z.z.z.z.z.z.z.z.jXs.q.  M.C.:.V.>.w.K.C.1 Y.w.3.K.K.X.=.;.@.Z.",
"+ S.K.;.@.@.S.S.+.#.K.,.D.;.;.@.@.$ =.V.D.i.i.p.fXfXfXfXfXfXfXfXfXfXfXfXfXfXfXfXk.fXx.p.i.i.1.X D.;. .%.<. .P.#.;.@.;.X.;.K.=.Z.",
"=.=.;.;.@.S.S.S.$ ;.O.,.Y.D.Y.;.C.A.G.H.w.bXfXjXk.lXlXlXlXlXlXlXlXlXlXlXlXlXlXlXzXhXz.NXzXbXi.B.O.Y./.3.1.1.P.M.o o.S.;.E.W.Z.N.",
"Z.=.o.o.S.S.S.;.+.H. .P.Y.H.O.{ n.{ | #.r.kXh.z.h.h.h.h.h.h.h.h.h.h.h.h.h.h.h.h.h.h.f.x.d.jXu.S.&.;.U.#.$.J.A.O @.N.D.&.3.D.=.Z.",
"+ F.;.o.S.Z.o.;.#.J.o.K.F.} q.t.(.9.<.A.r.jXf.xX.X.X}. X X X X}. X X X X X X X X X X[.lXf.cXe.:.@.q.t.(.(.  A.=.S.N.S.. &.&.+ Z.",
"o Q.W.o.@.S.@.;.Y.0.;.@.S.{ AXKXJX%X:./.q.bXf.mXM b n n n n n n n n n n n n n n c x m .Xg.jXu.#.n.@XrXHXSXO.=.Y.S.@.;.o.;.D.@.Z.",
"=.D.S.o.@.S.;.O.#.@.S.@.G.{ %XwXqX%XX.C.4.z.f.mXC C m M F F M M M M M M M M M M F F G |.h.kX).#.G.$XaX4X-X4.@.$.;.$.S.@.K.K.@.@.",
"S.X o.$.@.@.2.2.#.=.@.Z.Z.<.%XqXqXAX+ o u.XXxXoXC m m M F M M m M M M M M m M M v c F }.zXOXe.&.} #XeXwXFX%.Z.B.2.$.S.X @.=.o.S.",
"K.;.J.$.o.;.R.=.@.=.+ 3.K.@.%XqXqXAX+.V.9.A v D M m M m v c M M x m M x c Z m n c n N v A m ; V.G.#XaX9XSX+.A., =.=.=.o.;.@.S.K.",
"D.;.;.S.;.R.K.&.@.S.@.3.;.O %XqX2XZXn.G.- n N w M m M M F F F n M M C M M M n n 9 w w c B J ; B.O @XrXwXSX} 1.$.@.@.;.;.K.;.S.S.",
"=.@.@.S.&.:.=.=.@.S.Z.*.$.O ZXqXLX%X%.%.9.t M m F M m C D K D D r M r F F w M C N M P M M b & 5.%.t.7XwXJXY.w.R.;.@.;.;.;.=.=.=.",
"=.=.@.S.;.;.;.J.@.N.> O.;.M.ZX9XtX7X-XDX5XV B m >X2X1X+X|.XX;X<X2X<X1X,X;XoX|.OX1X,X5XI C B ~ DXDX7XqXrXDXN.&.X.J.;.K.;.=.o =.=.",
"Z.@.@.$.K.S.;.$.@.@.N.o.S.C.ZX9XtXwXqXqX:Xz M Z 9XHXrXMXjXh.uXGXrXrXrX9XyXz.nXg.sXqXwXS 8 c ` LXwX9X4X0XSXC.A.Z.$.$.D.;.:.=.=.=.",
"N.X @.o.;.@.$.+.@.@.Z.o.$., ZXrXrXqXqXGXKXF M v 9XrXqXcXj.f.uXwX0XqXqX3XuXk.nXjX7X9XrXI M M ( eXeXrX9XwX-XM.X.$.o.$.;.o.;.@.@.Z.",
"Z.@.S.:.&.o S.G.@.o.Z.o.$., ZXqX8X0XeXHX6Xb M I 6XwXeX=Xf a ;XtXeXtXwXwX7Xa f f tXwXsXI b F ` aX9XtXwXrX-Xn.+.*.$.;.@.o D.=.@.@.",
"=.=.D.W.-.D.D.Z.$.X N...S.M.ZXqXwXqX4XqX<XA m F 8XqXsXS n 4 _ sXqX9XqXaX5Xz x M 9X9XsXT c M ' qXqXeX9X9X;XN.@.$.$.S.;.=.^.K.@.@.",
"=.&.;.$.> Z.=.*.Z.# # Z.$.w.%XHXGX9X3X0X5X3 n M wXrXrXT 7 8 ( HX9X9XwXHX5X8 7 m wXwXHXI z 7 ` HX3X2XLXaXDX@.=.=.2.;.@.@.Z.L.o &.",
"D.;.:.@.O + =.3.D.>.o.@.B.K.(.VXVX-XeX0X7XY R E 9X9XrX) Y Y :XrXqXqXqXrX6XR ( ( 2XqXqXW / Y ,X0XaX>X( W l V.S.K.:.X.o.@.S.=.:.!.",
"W.K.;.$.N.@.;.E.,.=.$ # < < @.%.| t.tX9XHXwXHXaXrX8XqXrXHXHXwX8X0XqXqXqXrXwXHXrX9XqXrXwXHXtXaX0XHX( 3 v y +.@.;.Q.;.o.@.S.@.R.W.",
"D.D.o.$.S.=.:.3.> # @.V.C.1 -.J.C.@XHX3XeXGXtXwXqX8XrX9XwXwXwXrXrXrXrXrXrXqXqXqX7XeXwXeXrXwXwX9XrX' 3 M y N.+ X.K.;.X.o.$.;.W.=.",
"=.D.o.o.S.;.:.;., > + V.$.$ Y.!.M.t.pXiXyXpXpXpXqXrXrX9X9XrX6X5X5X5X5X:X5XrXqXqXrXrXwXpXyXyXyXpXuX=XF L y N.< + =.K.;.;.X.$.K.=.",
"D.D.@.@.S.D.S.@.B.@.$ -.=.o @.V.M.y.bXs.x.g.s.zX8X8X8X9XrXHXR 7 m m C 8 T wXrX8X9X0X2X+XzXz.z.z.bX[.9 x y +.> + ;.K.S.J.o.@.=.D.",
"Z.@.@.@.@.=.@.+ o + @.@.;.;.;.=.M.a.vXfXvXg.j.zX0XrXrXrXqXrXY z M m m 7 I HXrXqX9X0X3XcXjXg.hXfXb.'.9 n y M.N.@.@.+ @.@.@.@.=.F.",
"Z.X @.N.@.=.+ > # C.M.o $ :.:.>.1 y.zXzXxXlXlXoX1X8X8X9XqXrX/ M L M L M T GX8X0XwX7X0XcXs.d.fXzXgX{.b H y @.+ +.@.+ V.+.N.@.+ A.",
"C.+.  $.@.Z.+ # B.=.,.6 m r u K K w K w w C C K C K M ,XLXwXwX4X9X8XwXwXwXeX0XrXzXfXbXgXgXz.].D C m m 9 8 C K u 1 O B.+.S.X @.< ",
"@.Z.;.$.@.@.@.@.:.=.} 6 N H C n M m M m M m M M M m x <XqXwXeXrX0X0XeXwXwXwXqXqXlXs.hXz.vXx.].3 m M F m M n M w $ @.B.@.;.$.$.=.",
"# D.!.;.$.@.S.;.$.Z.M.k F H M G c z M M H n n x B K 9 >XrXrXrX8XwXrXrXwXwXwXeX7XzXf.hXf.fXf.].J A c n n H n M w >.;.#.;.=.K.;.=.",
"=.-.K.&.;.;.K.;.i j j 9 v v W 5X6X! M M n M Z Z n F x I I I {.MXcXcXcXcXcX+XMXcXzXf.hXf.mXvXdX[ >XY Z D F M m e -.J.$.;.=.K.;.# ",
"+ @.=.@.@.=.:.;.q N F v v z W sXHX_ 8 M F L m 8 F M c e F b [.j.lXvXz.z.z.k.z.z.zXg.hXg.gXh.uXHXLX_ 8 9 c M m e -.;.$.@.=.=.=.# ",
"> @.@.@.+ =.=.:.P B b c n 5 _ rXrXW 7 c z M M L D F N c b 0 '.b.g.f.g.fXhXh.j.kXnXhXvXxXxXz.dX9XrX' 7 m M N M K -.@.+.+ =.+ + < ",
"> > @.@.+ @.@.;.m c c R ] ( >X3XwX,XW ` / m M n c 9 M Y ` ` =X].{.].{.a [.xXf.gXs.g.lX*X*X*XiXwXrX<XW ( Q v n D -.@.+.@.Z.@.N.< ",
"< # + + @.$.$.o.e F J 5XsXHXqX9XqXeXrXHX6XC Z F v K F 6XqXrX! 3 M 7 N 3 s NXx.jXhXhXlXiXwX6XwXGX0XeXHXHX6XA M K &.@.+.@.@.@.N.> ",
"N.N.N.X =.=.N.V.u m v ,XHXHXeX9X9X9XLXrX,X8 M M N M x :XsXqX! 5 n c P b s vXkXj.vXx.vXyXwXJXHX9XeX9XwXwX6Xx m t A.@.@.@.+ N.@.@.",
"Z.@.N.@.=.=.@.$.u F Z ( ` ) ,XrXrX6X( ` ! C M H M w m 5XrX3X=Xa a p b m d [..X.X}.}. X;X] ~ ,X3X9XqXeX0X,XT Y ^ -.@.$.=.=.N.N.Z.",
"=.@.@.Z.@.Z.o ;.q c c C m 8 ~ rXrX) 7 C m m b b 9 e m 6XGXaXMXx.vX}.z c H 3 G b n 3 M n n 0 _ PXeXqXwXqXqXwXqXeXA.@.$.=.=.@.N.Z.",
"=.=.@.N.@.=.o ;.u Z M m F z _ rXHX_ 7 F F L M M B M v 5XGX9X+Xj.x.'.b C L M D C b n L M M x ' rXGXrXJX1XqXGX9X2X-.o.$.=.=.@.@.Z.",
"=.=.N.O @.=.;.;.e c M c F z ) qXeX) z F F M c c n n v :XHXLX*XXXXX{.K v m p w e d p p q p p ;XpXpXpXGXrXrXFXSXSX-.X.S.;.D.@.@.=.",
"=.=.Z.X =.;.;.;.e M M m H x ) qXrX) c F F M M M F M v >XeX6XQ c e n G x s xXcXjXgXz.vXlXbXd.z.fXf.+X9X9X&X-.o.0.-.X.J.;.F.@.@.o ",
"< =.=.@.;.;.$.$.w M M C M z ) rXrX) c M M m M M m m c :XaXwX! b M v P x p vXzXlXhXf.fXg.vXfXz.lXhX+XwXaXSX> C.S.D.X.2.=.D.@.;.=.",
"< # @.2.2.J.X.@.r M c C M z ) rXwX` c L m M M F B b b 5XaXqXR b D c r x p hXhXf.fXz.gXvXvXfXz.lXx.+XwXeXSXo @.*.!.$.2.&.D.;.K.F.",
"$ ;.;.$.@.@.=.o D c A F P n A C Z B m B B C M m A F G 5XLXwX*XgXXXgX|.l.zXgXfXnXs.k.xXz.k.bXi.;.*.!.!.0.A.-.@.@.=.o.;.;.R.o.D.A.",
"=.&.K.$.@.S.=.:.e c c x m N B F K n 9 m F D B C Z F b <XsX3X+Xd.g.j.fXk.nXhXhXvXhXfXhXfXhXjXr.# o.K.:.=.=.=.@.@.=.;.D.:.K.o.D.A.",
"A.=.D.o.@.K.;.Y.K J r N v c n 0 b n 8 9 c x n c 7 M M <XqXqXBXx.bXbXnXnXx.kXg.vXvXhXh.kXvXbXu.H.;.K.;.;.S.S.@.N.o F.W.=.;.=.F.@.",
"A.Z.o.@.@.=.D.;.* - - ^ :X:X[ 5X` ` :X:X` ` ` ` :X] ' Y T T @X4.y.y.y.r.t.s s s s a g s g E - =.;.K.o.J.$.S.@.@.o =.D.o.=.=.D.=.",
"Z.S.@.@.@.@.;.;.,.V.<.AXaX0XqXsXqXqXqXqXrXsXsXaXaXrXHXA c G ; : B.,.;.#.* G c m n b n b r V - #.;.;.o.2.;.$.=.=.D.o o.@.S.@.=.S.",
"Z.@.K.$.+.@.o.K.S.$.1.SXHXqXqXqXrXtXtXtXrXrX0XqXqX9XLXT M H ; } V.J.0.,.- H N n B v V v F V ; @.;.;.;.2.J.;.S.=.D.;.=.@.;.S.=.=.",
"=.+ S.$.@.V.X.S.D.1.4.t.CX#X#X$XZXVXCX#X&X[ ' W ( ( ( C z N & } V.K.D.B.* = k = = = % % ; % 2 , ;.;.2.:.2.O.;.o.;.S.K.@.@.F.Z.+ ",
"Z.@.X.$.V.$.@.o.V.1.1.} n.B.m.n.+.} } | * t n e b z 7 D M H & n.1.w.:.#.+.| $.m.M.+.| +.I.| V.@.o.o.2.;.J.O.J.+.;.o.;.S.S.Z.+ Z.",
"Z.Z.+ @.S.:.;.K.o.S.=.=.=.K.;.o.Z.o.* B.* J V b Z V 4 V V U = ,.;.;.o.K.;.;.K.o.< A.=.=.R.:.2.$.o.@.o.^.S.;.;.:.;.@.o.@.+ W.W.$ ",
"Z.Z.@.@.;.;.;.:.$.@.@.D.S.@.$.;.~.w.$ @.* i i &Xh k l & % = * H.@.@.$.S.@.S.S.@.+ F.@.o.W.D.$.J.;.;.$.$.o.K.;.;.$.$.J.@.@.S.W.=.",
"@.S.=.@.;.;.@.=.V.@.@.@.@.@.K.;.%.o.+.-.Y.O.*.).$.{ =.| U.#.@.Z.@.+ G.S.@.S.@.@.S.J.$.;.;.=.@.+.S.;.;.X.o.S.@.@.;.$.$.o.@.@.=.@.",
"@.S.S.@.;.;.@.@.V.@.@.+ @.;.L.o.X.0.S.A.S.,.A.L.q.q.;.o @.# + A.@.O V.V.@.S.V.$.;.;.O.;.o.;.S.V.@.@.;.;.K.@.o N.3.;.o.@.o.@.o.S.",
"@.D.;.$.;.;.@.@.N.O @.Z.Z.=.;.. K.).w.o.R.e.~.`.w.~.!.$ @.M.B.$.@.@.@.@.@.@.S.$.o.K.$.;.D.D.=.D.@.@.$.2.Q.o.@.Z.o.W.K.;.o.K.J.L.",
"=.S.;.$.;.S.@.@.@.@.Z.=.@.=.D.=.F. .5.V.o >.).F.D.#.H.P._.A.-.O.;.;.@.@.;.@.J.;.=.S.;.;.;.=.=.=.@.@.o.@.K.@.G.@.&.D.K.;.S.;.S.S.",
"=.=.@.@.;.;.@.N.=.S.=.=.+ =.D.D.2 !.$.O ^.=.. T.Z.A.D.;.W.+.-.;.;.;.;.@.S.;.S.;.@.X @.S.@.=.L.@.S.@.@.@.@.@.Z.@.D.=.=.;.K.@.@.+ ",
"=.=.o.@.S.@.@.@.D.S.o.L.S.@.o.S.4.0.;.&.R.$.-.J.O.w.5.:.$.Z.< G.;.o.S.@.S.G.@.@.N.V.$.+.S.o.$.@.J.o.S.S.N.@.@.Z.;.D.;.:.=.=.@.Z."
};
