/* XPM */
static char *f81961c1cb4348f89adddd1560dd7a4baAjwmfFUVsruH5Bt[] = {
/* columns rows colors chars-per-pixel */
"64 64 254 2 ",
"   c #1E7833",
".  c #267D2D",
"X  c #2C7D29",
"o  c #257C34",
"O  c #2B7D35",
"+  c #257D3A",
"@  c #2B7E3B",
"#  c #29753C",
"$  c #327D3B",
"%  c #3D7D3B",
"&  c #337E36",
"*  c #2F6F33",
"=  c #467C39",
"-  c #5B752F",
";  c #65762D",
":  c #697831",
">  c #71712C",
",  c #2C7E43",
"<  c #287B45",
"1  c #327D43",
"2  c #357A47",
"3  c #497D44",
"4  c #CE3C07",
"5  c #BC4503",
"6  c #BD4B04",
"7  c #BE4D0B",
"8  c #BF4708",
"9  c #BD530A",
"0  c #BB5604",
"q  c #AC5317",
"w  c #B65616",
"e  c #B75109",
"r  c #93671C",
"t  c #A66708",
"y  c #B86709",
"u  c #A5661C",
"i  c #AA7914",
"p  c #B0750E",
"a  c #B45121",
"s  c #896B25",
"d  c #8B6925",
"f  c #A96626",
"g  c #BE7A29",
"h  c #C34503",
"j  c #C34A05",
"k  c #CB4B05",
"l  c #C4460C",
"z  c #CD450C",
"x  c #C54C0B",
"c  c #CA4C0C",
"v  c #CA4404",
"b  c #D4450B",
"n  c #D14C0D",
"m  c #D34505",
"M  c #C4520C",
"N  c #CB530C",
"B  c #CC5B0C",
"V  c #C55407",
"C  c #D2530C",
"Z  c #D15D0E",
"A  c #D55606",
"S  c #CC4512",
"D  c #CB4B12",
"F  c #C54A15",
"G  c #D34D12",
"H  c #D64817",
"J  c #C35312",
"K  c #CC5213",
"L  c #C95715",
"P  c #D45D14",
"I  c #DC5D14",
"U  c #D45916",
"Y  c #E1591A",
"T  c #C5650D",
"R  c #D66618",
"E  c #DE711D",
"W  c #C97016",
"Q  c #E26B1B",
"!  c #E8761D",
"~  c #DD7320",
"^  c #D66A2A",
"/  c #E26E25",
"(  c #EA7A2A",
")  c #E67626",
"_  c #F17E2E",
"`  c #EB7630",
"'  c #1D853B",
"]  c #198937",
"[  c #1A8D36",
"{  c #29872D",
"}  c #38862B",
"|  c #258334",
" . c #2C8335",
".. c #2B8A35",
"X. c #25833B",
"o. c #2C833B",
"O. c #248A3B",
"+. c #2D8A3B",
"@. c #238B34",
"#. c #328335",
"$. c #338A35",
"%. c #32843C",
"&. c #3B843B",
"*. c #338B3D",
"=. c #398C3D",
"-. c #3C8735",
";. c #2D913D",
":. c #279537",
">. c #34923D",
",. c #3B933E",
"<. c #399636",
"1. c #2E932D",
"2. c #77BC1B",
"3. c #4C873D",
"4. c #438D3C",
"5. c #4B8B3D",
"6. c #488835",
"7. c #588939",
"8. c #449639",
"9. c #4C9331",
"0. c #69873A",
"q. c #6A9234",
"w. c #41A336",
"e. c #73B727",
"r. c #7CCD0D",
"t. c #7ACE06",
"y. c #7CD20D",
"u. c #79D709",
"i. c #6EC517",
"p. c #6FC518",
"a. c #7DCE11",
"s. c #77C519",
"d. c #7DD311",
"f. c #78D815",
"g. c #6FDA0E",
"h. c #7DCB20",
"j. c #1C8743",
"k. c #189045",
"l. c #248442",
"z. c #2D8442",
"x. c #248A42",
"c. c #2D8A42",
"v. c #2D8449",
"b. c #25874B",
"n. c #328542",
"m. c #3B8542",
"M. c #348B42",
"N. c #3A8D42",
"B. c #33844A",
"V. c #358C49",
"C. c #3B8C4A",
"Z. c #3C834A",
"A. c #289344",
"S. c #359243",
"D. c #3B9244",
"F. c #3C934A",
"G. c #399847",
"H. c #2B8754",
"J. c #2B8D51",
"K. c #438C43",
"L. c #488947",
"P. c #419345",
"I. c #439944",
"U. c #4B9B42",
"Y. c #43954A",
"T. c #439A4A",
"R. c #4A9749",
"E. c #539648",
"W. c #4A9B51",
"Q. c #419851",
"!. c #538A4B",
"~. c #668B46",
"^. c #6D9342",
"/. c #56A345",
"(. c #4AA254",
"). c #50A34B",
"_. c #6CAF6E",
"`. c #9B9B13",
"'. c #958F0F",
"]. c #A8890E",
"[. c #B08308",
"{. c #A78614",
"}. c #A49613",
"|. c #AE900D",
" X c #8AB90E",
".X c #9AA615",
"XX c #8DB610",
"oX c #93B510",
"OX c #97BB12",
"+X c #9BA80C",
"@X c #A4A714",
"#X c #A7BB1B",
"$X c #B2AB1C",
"%X c #998C3C",
"&X c #8F9133",
"*X c #A48E3C",
"=X c #BA892B",
"-X c #8DAD2F",
";X c #B1B923",
":X c #E9821E",
">X c #D89428",
",X c #CE8C39",
"<X c #CA9235",
"1X c #D2943A",
"2X c #D58F31",
"3X c #EE832A",
"4X c #E98526",
"5X c #F68B2D",
"6X c #EB982C",
"7X c #F6972B",
"8X c #EC8C36",
"9X c #F38B32",
"0X c #F98A36",
"qX c #EC9A3A",
"wX c #F59434",
"eX c #FB9534",
"rX c #F49B34",
"tX c #FC9B35",
"yX c #F5933A",
"uX c #FD953B",
"iX c #F59A3C",
"pX c #FD9B3B",
"aX c #D5A92B",
"sX c #D1AF2C",
"dX c #EAA529",
"fX c #E9A433",
"gX c #FDA13B",
"hX c #F8A237",
"jX c #C6B51F",
"kX c #84CD0D",
"lX c #89CB09",
"zX c #85D30B",
"xX c #85D509",
"cX c #86CD12",
"vX c #8BCB13",
"bX c #86C818",
"nX c #96C517",
"mX c #82D313",
"MX c #84D716",
"NX c #96CC13",
"BX c #A3C411",
"VX c #87D123",
"CX c #9F8E40",
"ZX c #9A9643",
"AX c #8E8D46",
"SX c #AE9242",
"DX c #D79644",
"FX c #CB9346",
"GX c #FD9542",
"HX c #FE9C43",
"JX c #FE9C4A",
"KX c #F79845",
"LX c #F39448",
"PX c #FAA143",
/* pixels */
"n.n.O *.D.%.n.%.| +.o.o.o.*.o.o.#.*. .o.S.X.o.o. .=. .N.o.@ z.o.*.o.z.o.D.,.O m.o.o.N.o.o.W.m.1 O M.X.O.+. .%.o.&.%.| N.m.o.o.%.",
"o.o.*.*.*.*.o.o. .o.o.%.*.N.*.M.#.Y.F.o.o.M.o.o.=.N.*.o.o.n.o.*.Y.o.o.o.N.=.%.W.M.o. .o.%.@ %.n.*.*.S.+. .=.T.o.Y.S.+.N.N.o.o.n.",
"o.%.N.*.*.D.%.N.D.%.o.o. .N.+.F.o.N.D. .o.*. .%.=.*.D. .M.Y.o.*.C. . .*.M.n.o.Y.*.o.o.%.M.o  .*.*.*.*.| P.R.N.o Y.M.+.*.*.*.o.o.",
"%.D.*. .*.N. .Y.N.%.%.M.*.D.o.o.S.*.*. .N.N.*.N.*. .D. .C.Y.o.o.@  .=.*.o., O $.%.%.C.o.M.N.#.,...+.N.%.P.*.o o.& o.;.*.%.D.o.@ ",
"N.D. .*.*.*.%.N.o.@ %.M.*.T.*. .S.>.D.#.R.D.P. .N.$.*. .N.n.o.o.z.*.,.=.o., o.*.*.D.C.o.o.F.*.,.G.| V.C.N.%.%.n.O *.>.N.#.T.z.$ ",
"N.%. .T.*.=.D. .*.o.o.o. .D.D.+.+. .$.*.I. .*.o P.=.*.*.*.o.%.o.B.o.=.P.M.o.o.*.%.T. .%.M.*.*.*.G.o.O %.N.F.n.o &.D.*.%.O F.n.n.",
"%.%. .N.*.Y.N. . .o.N.N.*...D. .M.|  .D.D. .@ n.N.*.D.P.%.n.n.o.@ + %.D.D.*.+.o.o.D. .*.D. .o.*.| *.%.N.+.*.o.@ P.D.o.o.$ n.M.%.",
"%.Y.%.o o.T.O %.+.+.M.N.*.. T.*.F.%.*.*.o.M.@ 1 & #.N.D.O n.n.o.o.@ o.M.*.,.S.X.*.*.*. .N.%.o.F.=.=.N.(.@...D.*.I.>.O.z.C.z.N.*.",
"z.o. . .+.o.o.o.+.o.M.' A.*.N.n.+.+.x.X.Z.-.v.} o.o.o.o.o.o.o.o.@ o.%.%.%.%.%.%...M.T.*.X n.x.j.c.;.K.K.' o L.8.,.D.D.| %.*.o.n.",
"@ M.D.*.o.o.M.N. .%.D.*.*.#.=.A.o $ n.*.+.{ &.e.s.s.s.s.s.s.s.s.i.i.i.i.p.i.i.i.L.# n.%.1.n.@  .%.#.....N.+.S.{ *.o.*.| *.D.%.n.",
"%.%.*.*.o.M.N.N.+.*.%.*.,.=.=.| J.v.*.>.B.< %.r.xXxXxXzXzXzXzXzXzXzXzXzXzXzXzXzXU.+ n.n.S.H.< +. .L.).:.>.*.G.X.O o.N.*.I.Y.n.z.",
"n.%. . .M.N.M.*.O.>...>.S.+.N.%.{ O.:.1.6.L.K.s.y.y.y.y.r.d.d.d.mXmXd.a.a.a.d.d.8.$.8.O +.V.$.<.O.P.R.:.:.*.m.' o.z.N.$.,.N.%.B.",
"@ C.*. .M.n. .*.+.>.{ >.S.c.c.o.M.H.x.>.e.VXs.lXkXkXkXkXkXkXcXcXzXzXy.y.y.y.mXmXbXcXh.} o.c.;.N.A.O.#.4.>...@ B.M.z.M.. #.%.@ n.",
"O T.Y. .o.M.o.*.C.*.{ %.K.n.+.@.[ M.4.I.2.lXr.MXd.d.d.d.mXmXmXmXy.y.y.y.y.y.d.d.d.xXcX6.< + 1.x.o.o.M.m.%.*.%.K.M.o.*. .*.N.o.n.",
"%.N.M. .o.M.*...n.*.N.%.n.o 7.&Xq.!.#.K.e.d.mXXXXXXXXXXXXXoXoXoXoXoXoXoXoXoXoXoXkXu.a.5.H.2 ^.~.0.-.+.X.X.N.m.O.*.+.M.o.D.D.o.o.",
"M.o  .+.o.o.>.>.x.@ N.o.x.>.ZXLXtXAXX.2 2.u.OXp x x x x x x x x x x x M M x j j @Xd.s.9.[ 0.iXtXFX1.:.$ x.O.% ' >.+.M.o o.%. .n.",
"D.*.S.+. .*.P.%.o.%.#.P.F.+.%XpX7X%Xo.1.s.xXvXt x z b z x c x 7 M x z z z z x 9 +Xf.d.<.@.~.tXuXDXF.z.O o.@ n. .%.%.%. .*.o.N.D.",
"N.*.*.N.*.P.D.#.z.%.#.N.M.o.%XpXrX%Xo.=.-X.X`.y c j 9 V M K c z j c c M M k c e }..X`.5.;.~.iXiX1X .o.%.%.*.Q.*.o.o.*.*.D.*.N.M.",
"%.o.o.M.#.=.*.%.o.%. .*.o.| %XpXuX%XO.1 f z k m G x x z c x c n c c D 7 x c n c j j J 3 c.~.0XuX<X .o.*.P.N.F.,.*.o.*.*.*.%.%.%.",
"%.%.o.N.*.*.*.S.X.z.#.%.z.o.%XtXtX&X] | r b b 7 h h z D S l 8 h h j x l S c k h k l w &.] 7.6XtX<X+.o.#.P.=.%.$.S.*.D.*.%.O %.o.",
"n.o.o.+.D.N.*.+.X.z.%.o.M.o.*XtXeX1X%XZXu k N ^ / W p ].{.~ Q E / E W {.{.W Q / Z c C %X%X*XtXtX1Xo.M.*.%.o.n.. +.+.N.*.=.%.%.%.",
"z.o o. .*.o.+.O.z.z.%. .n.O.CXtXGXpXtXHXR 4 x 8XHXfXnXu.BXdXuXHXJXtXjXmXMXsXpXJXL h A rXHXpXpXGX,Xo.V.%.o.o.v. . .+.*. .*.o.o.n.",
"n.o.N.=.#.O M.M.c.o.o.o.M.X.CXtXHXwX7XeXY b C wXuXaXnXd.BXdXeXuXiXtXjXcXcXsXpXyXR z j 5XuXeXtXGX,Xo.n.O M.o.l.M.+.*.o.O N.%.o.o.",
"%.%.N.Y.&.N.V.%.o.o.o.o.V.X.CXtXwXtXtXHXR 7 V 5XpX6X[.'.=XiXHXeXpXiX>X{.{.>XpXpXB S w 0XJXpXfXtXDXo n.*.o.o.z.+.+.N.*.%.W.D.o.o.",
"%.#.*.+., B.%.$.% | | n.M.8.*XuXKXtX7XpXT x H 9XpX0Xc v C uXeXuXpXuX/ l l ` JXwXA b K iXeXuXpXeXDX .(.%.n.#.n.%.>.*.o.o.n.F.O #.",
"N.*.*.o.+ @ %.,.L.*.O.o.n.4.ZXJXwXtXpXGXR 6 x 8XgX9XN 5 B uXpXpXwXpX~ 5 h ( PXtXT 5 J yXtXuX8XpX,X=.D. .n.#.M.C.*.|  .o.M.%.=.W.",
"Y.D.*.+.z.o.*.I.V.o.o.1 ,  .6.q.&X<XKXGX3X( _ iXtXpX9X( 9XpXwXwXwXpXwX3X3X0XpXwX3X( 0XuXpX0XR I g I. . .n. .%.=.T.*. .o.N.o.P.Y.",
"N.N. .o.M.%.=.,.+ o @ m.m.o.+.<.] CXHXeX7XpXpXwXwXpXpXpXHXpXpXpXpXeXwXpXpXpXpXpXPXhXhXwXuX9Xx 4 f F.o %.m. .@ @ D.*.|  .+.*.Y.%.",
"%.N. . .N.*.=.*.n.@ @ l.z.m.L.!.C.SXGXyXhXrXuXGXpXtXeXwXpX9XuXuXGXuXpXpXtXeXuXuXeX6XhXeXHX8XM b u o.o.%.B.o.z.@ %.D.*.*.| *.D.%.",
"N.N.o.o.N.N.N.o.B.z.o.X.o.%.$ m.o.6.0.0.-XnX#XfXuXeXtXeX9XZ Z B N B ) uXpXeXeXiX;XnX#Xy P L 6 G u @ n.@ z.o.z.+ *.D.N.S. .o.%.N.",
"n.o.o.o.o.%.o.@ + X.z.n.*.+.O.O.l.[ ] + e.u.MXaXuXpXtXpX_ j x x x 5 E HXpXtXrXhXOXd.nXt h x x b u c.M.o.@  .X.+ o.@ o.o.o.o.%.C.",
"m.o o.z.o.%.@ , o.o.@ @ #.*.=.= 3 -.% = -XvXnX6XyX9X7XtX0Xc K K K j ( uXeXrXrX6X#Xt.bXp J M N C u F.*.o.o. .o.o.o.@ c.+ n.o.@ n.",
"v.o.  +.o.n.@ 1 < *.V.o  .J.> K 9 J F J 9 9 9 M N c L M I uXrXeXeXeXiXpXeX;XcXNXvXr.mXbX X$XDXyX<XS.$.O 2 >.:.< , @ c.o.c.  z.v.",
"z.M.*.+.o.o.o.o.M.{ v.X.] A.s m j x c c h x x n M c c h P HXiXeXeXuXuXuXpX;Xd.d.mXr.lXmXt.BXrX7X2X+.O.X.< ....Z.o.o.o.o.+.M.n.$ ",
"%.N.I.*.*.o.N.%.*.$., % - 7.r N D B B Z N G c h j x c c P 0X9XqXfXfXfXdXdX#XcXd.y.t.t.d.y.nXGXuX2XO.A.%., z.n.V.+.M. .*.*.Y.N.$ ",
"%.=.D. .N.M.D.*.%.+.j.- K H S K l ) tXuXP S D L G x x x j n 6 i vXr.vXlXvXt.zXt.zXy.lXmXmXnXKXqX2X..A.&.$ z.n.+.+.S.*.*. .D.m.%.",
"$ %.%.o.%.M.M.+.+. .< ; M 9 x 5 h ) gXtXI z c h z j x K x v 6 i d.g.f.f.mXf.zXlXkXy.zXr.u.NXhXtX1X$.x.$. .l.& $.*.*.*.%.o.%.%.o.",
"@ @ @ %.@ z.o.+.-.4.v.- G b C Q B 4XtXeXE P R N x c c c M R R W @X.X.X.X.XbXMXa.mXg.MX+X@X$XSXFXZX-.z. .#.z.N.;.M.o.o.@ z.o.o.@ ",
"@ o.o.z.o.o.o.+.$.E.B.; G c R hXiXpXpXrXPXHXGXB 7 D c j R GXHX3Xh j j V 0 `.bXcXr.g.OX0 k q $ ' 5.,.B. .&.M.R.O.+.o.o.o.n.z.n.@ ",
"@ @ o.o.o.z.o. .O.*.O.0.C z / HXpXuXuXeXgXpXuXC x K 7 6 I HXPX! 4 H S D j .Xf.xXcXf.nX0 h a , 2 X.=., x.&.@ 4.@ @.O.o.o.o.1 1 1 ",
"B.o.o. .%.o.n.z.v.&.x.: c x R ( ) 9XpXpX( ` ` N c M x v P qXtX>Xi [.y z x p }.`.`.}.{.].[.'.2 } z.n.O %.N.%.%.o.%.z.o.o.@ n.@ z.",
"n.o.z.o.n.o.z.o.X.%.x.: n l j V h ) HXHXR j c h c x x j I pXpXaXmXMX}.9 l c k z S x t OXlX-X2 , @ @ %.%.N.%.o.@ %.%.o.o.o.n.o.n.",
"%.o.z.z.n.%.%.o.X. .x.: G D c h j / pXHXR j c x c x x j I GXpXsXu.y.`.6 F x b S z v 0 OXxXVXo.x.n.@ N.o N.%.o.%.@ %.o.*.o.%.n.n.",
"%.%.z.o.n.%.%.%.c.*.j.; n D D c j ) pXpXZ h D K c c x 6 I GXuX>X[.[.T z J i }.`.|.}.`.lXt.bX6.>.%.o.M.| c.o.%.%.%.o.o.*.o.o.%.z.",
"%.%.@ @ o.%.*.*.;.%.j.; n x x x j ) pXpXR x x 8 z M M h P KXuX:Xx x D S 9 @XMXf.a.f.f.u.mXs.K.1 @ *.o.o.+.o.%.o.%.o.+.N.*.%.%.o.",
"n.%.@ o.o.*.*.M.+.#.j.; n x c D h ( HXuXR j x N v M M h P PXuX:X5 h j M e +XzXlXxXt.lXlXNXs.<. .o.N.o.o.o.O %.M.%.o *.N.*.*.%.o.",
"1 n.o.*.*.N.+.+.D.=.b.; n x c c c P R R K D c j c x x j I iXpX>X.X@X.X.X+XlXf.vX|.p i q.U.9.n.%.*.M.*.%.n.@ %.D.N.o S.*.*.*.%.%.",
"1 n.o.>.>.D.+.X.*.&.b.; k c c x z x 6 x l S D c x j x j I uXtXsXkXu.u.r.MXu.y.nXt 4 a 6.k.&.c.G.@.| F.n.C.%.o.*.W. .D. . .N.*.N.",
"& *.*...o.o.o.X.#.v.b.; H 9 S F x x N N c c c x S D J 9 Y GXpXaXbXbXlXzXcXvXkXvXi k 7 q.$.>.-.:.O P.D.%.%.%.%.%.%. .*.*.P. .m.m.",
"%.#.D.+.o.N.o.N.] m.M.@.- 6.=X:X9X4X3X9X9X5X5XwX5X5X3X4X2Xq.0.9.9.w.'.y y y y y n j J 7.C.c.c.Z. .D.*.*.*.*.%.%.%.*.N.=.D. .V.n.",
"m.%.N.o.o.F.*.D.+.N.[ ] 2   *XhXtXpXpXtXpXpXpXtXfXHXuXpXLX| < l.l.k.s z S 7 j F k 0 w ,.A.$ n.m.*.D.+.*.*.M.o.o.O C.Y.%.*.%.C.o.",
"m.*.o.o.z.n.*.$.c.&.& o.1 ' AXLXyXGXGXGXGXGXyXyXeXpXwXyXDXX , l.X.*.d k c c z H c n F -.+.& #.>.*.D. .*.*.M.o.o.O %.N. .%.%.N.%.",
"m.M.o.o.o.o.*.$.>.=.G.' o.o.&.5.3.3.3.!.E.3.3.E.!.L.6.L.L.o.x.+ O.>.s k c M j S x c F = c.o.| *.*.N.+.*.*.*.o.o.N.O  .o.M.o.%.M.",
"%.o.S.+.o.o.| S.@.{ >.o < x.] [ $.+.....+.| | *.c.{ 1.x.k.| ] # A.A.s b G c k c k k H } A.z.x.z.*.*.*.*.*.*.M.o.N.*.%.o.*.N.%.%.",
"n.@ M.+.o.n.| M.L.>.>.X.l.' | % K.E.K.&.%.m.%.&.Z.3.5.M.j.| @.O.&.S.> q a q q w q q w } D.%.+.O.o.*.>.*.>.+.S.o.*.N.D.o.o.C.n.@ ",
"n.o.| +.*.o.o.o.z.S.>.' O.$.=.l. .*.o.o z.v.l.z.X.*.#.. N.c.n.' ;.S.*...o.%...*.@  .{ j.1 k...#.o.+.S...>.+.S.o.*. .*.N.M.n.@ m.",
"B.n.@ o.M.=.*.D. .S.o.%.%.D.*.| >.& 1 B.# B.n.* %.O n.Q.*.D.+.*.*.*. .D.*.D.N. ., z.%.%.P.=.*.+. .+. .Q.M.*.*.=.*. .| o.@ F.Y.& ",
"n.n.o.o.*.*.*.=.+.o. .N.N. . .*.9.E. .| >.| | _.n.=.).(.C., o.,.*.o.+.N.o.N.M.o.@ V.o. .Y.N.*.S.*.*.+.+. .D.*.*.+.+.S.o.o.M.Y.%.",
"o.M.%.o.*.*.o.%.M.o.o.%.%.o.D.D.x.+ + N.4.-.<./.&.#.*. .N.M.*.o.z.+ N.N.o.M.n.o.M.N.%.*.*.%.o.o.M.*.*.|  .N.o.o.*.+.+. .o.o.%.o.",
"o.N.M.o.*.*.o.o.c.z.o.@ o.N.Y. .o K.=.+.*.=.*.L.U.&.O O M. .o n.o.+ c.M.o.c.M.o.*.*. .*.#.%.M.c.o.o.*.*.D.o.@ z.,.*. .o. .o. .N.",
"o.N.*.+.*.*.o.o.z.@ o.%.n.%.N.. 4./.8.+.P.8.U._.N.).).{ o.B.n. .o.o.o.o.o.o.S.+. .D.+.*.N.M.o.S.o.o.+.>.T. .o.n. .Y.D.*. .D.S.F.",
"%.M.*.+.*.M.o.o.o.o.o.n.%.o.N.%.V.#.$.o.= 6.U.K.=.#.$.*.(.z.n.N.*.*.o.o.o.o.D.*.*.N.+.*.*.*.*.+.o.o. .o.D.o.M.o.#.N.D.*.N.*.N.M.",
"%.%.o.o.*.*.o.z.%.M.o.%.o.o.N.D.3.!.M.' M.z.< B.$.#.M.N.W. .*.M.*.N.*.o.N.o.M.M.o.o o.M.o.o.F.+.M.o.o.o.o.o.n.o.N.%.%.*.D.o.o.@ ",
"%.%. .o.M.o.o.o.N.M.o.N.M.o.o.M.<.C.v.{ U.m.| <.%.D.*.*.n.@ %.$. .o.N.o.V.M.@ %.z.c.+.o.N. .*.+.S. .M.M.z.o.o.n.*.N.*.=.%.%.o.n."
};
